<?xml version="1.0" encoding="UTF-8"?><svg xmlns="http://www.w3.org/2000/svg" viewBox="0 0 255.71 219.19"><defs><style>.cls-1,.cls-2{fill:#b6d550;}.cls-3,.cls-4{fill:#6ea354;}.cls-3,.cls-5{mix-blend-mode:multiply;opacity:.47;}.cls-6{fill:#add136;}.cls-7{isolation:isolate;}.cls-2,.cls-8{mix-blend-mode:screen;}.cls-5{fill:#63954c;}.cls-9{fill:#bed738;}</style></defs><g class="cls-7"><g id="Calque_2"><g id="Layer_1"><path class="cls-4" d="m255.3,110.68c-.88-9.29-3.2-18.56-7.38-26.91.39-2.27.46-4.6.24-6.94-.44-4.88-1.86-9.95-4.63-14.04-.14-.21-.3-.4-.44-.6-.38-.59-.76-1.17-1.17-1.74-1.29-1.8-2.65-3.57-4.2-5.16-.92-1.61-1.54-3.37-1.7-5.25-.42-5.11,2.34-9.74,3.55-14.56,1.06-4.25.09-8.8-2.33-12.42-5.32-7.96-15.41-7.51-23.59-10.17-1.89-.61-3.49-1.48-4.88-2.91-1.29-1.33-2.36-2.83-3.49-4.3-2.14-2.78-4.84-5.62-8.65-5.48-2.06.07-3.93.9-5.59,2.1-2.65-1.85-6.61-2.21-9.58-2.28-3.07-.08-6.11.23-9.08,1.05-3.26.89-6.23,2.34-9.2,3.93-1.44.77-2.91,1.52-4.48,1.99-1.74.52-3.52.6-5.33.39-3.42-.41-6.7-1.52-10.16-1.77-6.08-.44-12.43.72-17.74,3.77-2.38,1.36-4.45,3.2-6.79,4.62-.87.53-1.79,1.03-2.75,1.4-.7-.08-1.41,0-2.11.08-1.32.16-2.58.33-3.92.31-2.91-.03-5.75-.56-8.62-.95-2.95-.41-5.92-.51-8.88-.68-2.98-.16-5.9-.51-8.85-.91-5.3-.72-10.79-1.15-15.84,1.01-4.02,1.73-7.57,4.9-8.87,9.18-.7,2.31-.94,4.91-2.29,6.97-1.32,2.02-3.5,3.34-5.61,4.41-4.78,2.42-9.78,4.38-14.75,6.35-7.66,3.03-15.58,6.8-20.51,13.7-2.28,3.19-3.57,7.03-3.23,10.97.1,1.17.34,2.32.17,3.5-.15,1.07-.56,2.09-1.08,3.02-1.16,2.06-2.68,3.92-3.92,5.94-2.75,4.48-5.06,9.34-6.34,14.45-1.18,4.69-1.57,9.74-1.09,14.55.24,2.42.76,4.83,1.64,7.1.81,2.08,1.89,4.29,3.43,5.93,1.16,1.24,2.6,2.14,3.99,3.08,1.28.87,2.78,1.85,3.41,3.33.36.86.29,1.72.1,2.61-.27,1.3-.57,2.59-.85,3.89-.55,2.53-1.06,5.07-1.25,7.66-.38,5.06.72,10.27,3.89,14.34,2.46,3.17,6.1,5.04,10.14,4.97,5.03-.09,9.44-3.15,14.44-3.34,1.17-.04,2.29.1,3.35.41,2.05,5.29,3.6,10.79,5.47,16.15,4.47,12.82,10.69,25.79,21.7,34.25,2.88,2.22,5.97,4.05,9.4,5.29,1.78.64,3.66,1.08,5.53,1.36,1.58.24,3.2.35,4.75-.06,1.68.68,3.41,1.24,5.16,1.67,1.94.65,3.94,1.14,5.97,1.45,1.93.29,3.79.14,5.71-.2,1.57-.28,3.19-.67,4.8-.77.27.06.55.11.82.16.04,0,.09,0,.13,0,.1-.06.23-.09.38-.04.23.08.46.15.69.23.71.14,1.42.24,2.14.34,0,0,0,0,0,0,.31.04.62.07.93.11.15.02.3.04.45.05.08,0,.17.02.25.03,0,0,0,0,0,0,.22.02.43.04.65.06,0,0,0,0,0,0,.19.02.37.03.56.05.26.02.52.05.78.07.21.02.42.04.62.06,0,0,0,0,0,0,.13.01.25.02.38.03,1.81.16,3.6.43,5.39.69.1,0,.2,0,.3-.02.15-.01.26.03.34.1.26.04.52.07.79.11,2.28.3,4.57.52,6.86.67.35.02.7.04,1.05.06.3,0,.6.02.9.03,4.18.09,8.37-.05,12.55-.45.01.05.02.09.03.14.79.07,1.59.15,2.38.23,7.53.03,15-1.48,22.24-3.44,7.54-2.04,14.89-4.52,21.92-7.93,6.96-3.37,13.6-7.39,19.86-11.92,6.03-4.36,11.89-9,17.14-14.29,9.26-9.35,15.88-20.77,19.81-33.31,3.78-12.07,5.16-24.92,3.97-37.52Z"/><path class="cls-6" d="m116.93,15.91c2.2-.96,4.18-2.38,6.11-3.78,2.25-1.63,4.61-2.97,7.25-3.88,2.95-1.02,6.08-1.54,9.2-1.63,3.35-.1,6.54.44,9.79,1.17,3.36.75,6.65,1.19,9.99.07,3.13-1.05,5.88-2.97,8.91-4.26,3.13-1.33,6.47-2.22,9.88-2.43,2.72-.17,5.56-.08,8.22.54,1.31.3,2.58.77,3.68,1.48-1.14.99-2.15,2.13-3.02,3.26-2.28,2.98-3.79,6.43-4.65,10.07-1.8,7.66-.92,15.83,1.56,23.24,1.92,5.73,4.86,11.21,8.85,15.77.19.27.37.55.56.81.11.14.22.29.34.44-5.15-3.16-10.59-5.84-16.2-8.09-1.87-.75-3.77-1.44-5.68-2.08-.39-2.16-1.06-4.31-2.29-6.14-1.16-1.73-2.84-3.06-4.46-4.35-1.64-1.3-3.29-2.59-4.5-4.33-1.26-1.82-2.12-3.9-3.08-5.89-.95-1.96-2.01-3.9-3.49-5.52-1.41-1.55-3.12-2.81-4.95-3.83-3.77-2.08-8.15-3.34-12.48-3.28-4.92.08-9.62,1.71-14.41,2.63-1.82.35-3.63.45-5.41.34.13-.09.24-.21.28-.33Z"/><path class="cls-6" d="m204.61,120.66c1.26,3.93,3.39,7.52,4.76,11.41,1.32,3.75,2.23,7.66,2.74,11.6,1,7.79.38,16.18-3.21,23.27-2.21,4.36-5.27,7.79-8.84,10.63-.14-.64-.29-1.28-.45-1.92-.44-1.71-.83-3.37-.73-5.15.08-1.5.44-2.95.88-4.38.94-3.06,1.98-6.03,2.37-9.23.35-2.9.27-5.85-.22-8.73-1-5.87-3.72-11.36-7.37-16.02-1.86-2.38-4.02-4.46-6.14-6.6-2.1-2.12-4.18-4.28-6.14-6.54-3.84-4.4-7.33-9.22-9.49-14.68-1.09-2.76-1.84-5.65-2.16-8.59-.34-3.01-.23-6.08-.21-9.11.04-5.38.14-10.88-1.26-16.13-1.51-5.65-4.89-10.27-9.22-14.12-4.62-4.1-10.04-7.26-15.77-9.55-6.25-2.5-12.89-3.88-19.61-4.32,4.19-.44,8.41-.6,12.57-.58,12.14.06,24.27,2.1,35.72,6.16,9.78,3.46,19.14,8.31,27.42,14.58.8,2.67,1.63,5.33,2.5,7.98,1.52,4.63,3.2,9.2,4.68,13.84,1.33,4.18,2.28,8.55,1.68,12.95-.63,4.65-3.45,8.43-4.71,12.87-.98,3.46-.84,6.92.26,10.34Z"/><path class="cls-9" d="m42.41,155.64c-2.45-.45-4.92-.1-7.29.57-4.37,1.24-8.71,3.48-13.33,2.13-4.35-1.27-7.23-5.24-8.62-9.37-1.69-5.04-.91-10.35.17-15.43.28-1.3.57-2.59.84-3.88.19-.9.39-1.76.25-2.68-.23-1.51-1.27-2.67-2.42-3.6-1.32-1.07-2.82-1.9-4.17-2.94-1.65-1.28-2.8-3.03-3.75-4.88-2.25-4.36-2.89-9.38-2.71-14.24.19-5.13,1.28-10.09,3.27-14.82,1.05-2.51,2.31-4.94,3.72-7.26,1.24-2.04,2.72-3.91,4-5.92,1.13-1.77,1.86-3.71,1.86-5.83,0-2.11-.24-4.08.24-6.18,1.76-7.82,9.21-12.85,15.94-16.18,4.53-2.25,9.34-3.92,13.92-6.07,2.23-1.05,4.44-2.16,6.6-3.34,1.85-1.01,3.72-2.16,5.13-3.76,1.47-1.67,2.15-3.69,2.68-5.82.6-2.42,1.31-4.62,2.99-6.53,3.22-3.68,8.03-5.24,12.8-5.43,2.9-.12,5.8.23,8.67.63,2.89.4,5.77.72,8.69.87,2.91.15,5.83.24,8.72.63,2.83.38,5.63.83,8.49.85,1.2,0,2.37-.07,3.55-.3.45-.09.92-.22,1.4-.33-.05.11-.11.23-.16.34,1,.14,2,.22,3,.22,4.89.03,9.52-1.73,14.28-2.58,2.46-.44,4.98-.63,7.47-.33,2.11.26,4.2.84,6.18,1.63,4,1.59,7.6,4.13,9.83,7.87,2.2,3.69,3.36,8,6.53,11.06,1.47,1.42,3.18,2.55,4.73,3.86,1.73,1.46,2.92,3.15,3.97,5.14.44.82.79,1.7,1.11,2.58-9.65-3.15-19.76-4.92-29.91-5.25-6.93-.22-14.02.09-20.93,1.27-4.95-.03-9.9.42-14.74,1.28-12.47,2.23-24.74,6.98-34.62,15.03-9.15,7.46-16.36,17.24-21.32,27.92-3.02,6.51-5.1,13.41-6.3,20.47-1.94,5.85-1.8,12.2-1.56,18.3.28,7.14.78,14.36,2.8,21.25-.57-.73-1.16-1.44-1.65-2.2-1.6-2.44-2.79-5.18-3.97-7.84-.54-1.21-1.02-2.44-1.47-3.68-.19-.53-.37-1.06-.55-1.6-.08-.23-.16-.47-.24-.7-.02-.05-.03-.1-.05-.15-1.07-3.38-1.88-6.85-2.53-10.33-1.02-5.47-1.74-11.01-2.39-16.54-.64-5.42-1.09-10.89-1.1-16.35-.02-6.05.31-12.34,1.9-18.21.03-.1-.11-.07-.14,0-.87,2.54-1.59,5.07-2.05,7.72-.47,2.72-.74,5.48-.88,8.24-.14,2.66-.13,5.33-.04,7.99-.05,2.74-.03,5.47.11,8.2.39,8.04,1.67,16.07,3.73,23.86,2.07,7.82,5,15.41,8.8,22.55,1.91,3.59,4.09,7.03,6.6,10.23,2.24,2.85,4.77,5.3,7.44,7.72-.98-.61-1.94-1.24-2.85-1.96-1.77-1.4-3.22-3.13-4.85-4.68-1.67-1.58-3.55-2.81-5.84-3.23Z"/><path class="cls-6" d="m80.29,212.13c-3.1-1.08-5.89-2.57-8.55-4.48-5.51-3.94-10.03-9.07-13.66-14.77-3.66-5.77-6.41-12.04-8.73-18.45-2.02-5.56-3.64-11.27-5.75-16.8.85.36,1.66.84,2.42,1.44,1.83,1.43,3.32,3.24,5.05,4.78,3.03,2.68,6.9,4.15,9.94,6.8.34.3.67.61.98.93,1.01,1.3,1.89,2.69,2.69,4.13.74,1.34,1.44,2.74,2.06,4.18,1.01,3.25,1.65,6.6,2.46,9.91,1.09,4.44,2.55,8.81,5.12,12.63,3.34,4.96,8.21,8.75,13.66,11.22-2.63.05-5.23-.65-7.69-1.51Z"/><path class="cls-6" d="m102.32,216.37c-1.1-.15-2.19-.32-3.28-.5-2.77-.62-5.46-1.54-8.23-2.14-.26-.1-.52-.19-.77-.3-4.29-1.79-8.32-4.37-11.57-7.71-2.97-3.05-5.11-6.7-6.56-10.68.13.25.25.49.4.74.97,1.65,2.17,3.15,3.48,4.53,2.66,2.81,5.84,5.1,9.18,7.02,6.87,3.96,14.58,6.44,22.27,8.23.28.07.57.12.85.19-1.92.27-3.83.68-5.77.62Z"/><path class="cls-9" d="m147.52,215.51c0,.75.09,1.49.22,2.22-2.81.26-5.63.4-8.44.43-6.9.07-13.81-.49-20.63-1.52-2.11-2.04-4.17-4.14-5.89-6.53-1.94-2.7-3.44-5.67-4.79-8.7-.09-.21-.17-.42-.26-.63-.28-3.53.21-6.92,1.3-10.35,1.17-3.66,2.7-7.26,4.45-10.67,3.4-6.62,7.88-12.6,12.69-18.26,4.8-5.66,9.84-11.11,14.73-16.68,5.08-5.79,10.48-11.4,14.49-18.02,1.32-2.18,2.52-4.43,3.73-6.67.12-.19.25-.37.38-.56,1.07-1.66,2.12-3.33,2.89-5.15.02-.05.04-.09.06-.14,1.86-2.98,4.29-6.05,4.21-9.72,0-.32-.46-.12-.49.11-.23,1.42-.77,2.73-1.46,3.97-.14-.04-.36.01-.46.17-.71,1.07-1.3,2.19-1.85,3.33-.49.67-.97,1.33-1.43,2-1.87,2.7-3.46,5.63-5.07,8.51-1.19,1.62-2.41,3.21-3.63,4.8-4.76,6.17-9.66,12.19-14.8,18.05-4.98,5.69-10.12,11.24-15.18,16.85-4.52,5.01-8.95,10.18-12.41,15.99-1.88,3.16-3.4,6.48-4.57,9.97-.34,1.01-.74,2.16-1.06,3.33-.08-.24-.16-.48-.24-.71-1.18-4.84-2.02-9.76-2.58-14.7-.93-8.26-1.05-16.6-.45-24.89.16-2.25.38-4.5.64-6.75.12-.08.22-.18.28-.3,1.31-2.61,2.25-5.35,3.36-8.04,1.13-2.77,2.48-5.4,4.21-7.85,3.27-4.63,7.22-8.72,11.19-12.75,4-4.06,8.06-8.07,11.59-12.56,3.56-4.53,6.89-9.3,9.86-14.23,1.68-2.79,3.25-5.67,4.57-8.65.06-.13.11-.26.17-.39.25-.49.51-.97.76-1.46.07-.14.02-.23-.07-.26.88-2.33,1.53-4.7,2.06-7.16.03-.12-.14-.09-.17,0-1.91,5.59-4.69,11-7.74,16.04-.02.03-.03.05-.05.08-1.07,1.53-2.18,3.04-3.28,4.52-3.13,4.21-6.41,8.33-9.89,12.26-3.56,4-7.37,7.76-11.01,11.69-3.45,3.72-6.57,7.66-9.61,11.72-1.06,1.41-2.08,2.86-3.03,4.34.52-2.19,1.12-4.35,1.62-6.55.79-3.47,1.82-6.87,3.01-10.22.1-.08.16-.19.12-.29,0,0,0-.01,0-.02.36-1,.72-2,1.1-2.99,0-.02.02-.05.03-.07,1.89-4.19,3.75-8.38,5.97-12.43,1.1-2,2.08-4.02,2.97-6.11.25-.59.5-1.2.77-1.8.57-1.01,1.12-2.02,1.67-3.03.21-.28.42-.55.66-.81.15-.16.11-.32,0-.4.05-.09.09-.17.14-.26,1.05-2.01,2.29-3.91,3.3-5.94.99-1.98,1.98-4.02,3.62-5.55.24-.22-.07-.48-.3-.3-1.51,1.17-2.63,2.72-3.63,4.34-1.08,1.75-2.18,3.47-3.26,5.21-1.24,2-2.31,4.1-3.51,6.13-1.24,2.11-2.5,4.2-3.66,6.35-2.28,4.19-4.14,8.6-5.9,13.03-.26.57-.52,1.14-.77,1.71-.3-1.62-.41-3.3-.53-4.88-.21-2.81-.37-5.62-.45-8.43-.21-7.11.32-14.19,1-21.26.35-3.66.78-7.31,1.27-10.95.46-2.09.88-4.17,1.53-6.22.11-.34-.42-.27-.51,0-1.38,4.21-2.81,8.35-3.75,12.7-.95,4.39-1.62,8.82-2.06,13.29-.44,4.43-.62,8.88-.55,13.33.05,3.7.45,7.37.64,11.06.08,1.6.14,3.2.33,4.79.07.63.13,1.8.56,2.51-.69,1.71-1.33,3.43-1.9,5.2-1.47,4.53-2.62,9.15-3.61,13.8-1.68,7.96-3.07,16.05-3.34,24.19-2.15-2.37-3.83-5.18-5.46-7.91-2.24-3.74-4.12-7.65-5.71-11.71-1.59-4.07-2.92-8.26-3.86-12.54-.97-4.39-1.6-8.84-2.26-13.28-.36-2.43-.75-4.87-1.26-7.28-.53-2.53-1.27-4.92-2.15-7.34-.06-.17-.33-.02-.3.13.46,2.45.77,4.96,1.12,7.44.35,2.47.66,4.94.97,7.41.63,4.92,1.2,9.86,2.29,14.71.53,2.38,1.18,4.71,1.93,7.02,1.76,5.76,4.13,11.26,7.23,16.46.1.2.2.4.3.59,1.39,2.61,3.08,5.01,4.75,7.44.59.85,1.17,1.71,1.78,2.55.18.25.38.56.6.84,0,.18,0,.35,0,.53.26,9.64,1.92,19.31,4.44,28.61.65,2.39,1.43,4.75,2.37,7.05-1.1-.56-2.21-1.08-3.3-1.63-2.13-1.08-4.07-2.36-5.97-3.81-3.61-2.76-7.02-5.8-10.16-9.09-6.36-6.63-11.63-14.24-15.86-22.39-2.41-4.65-4.47-9.53-5.99-14.55-.09-.3-.6-.03-.53.23,1.16,4.58,2.67,9.04,4.53,13.35,2.35,6.19,5.08,12.16,8.95,17.63,2.57,3.63,5.54,6.9,8.82,9.91,3.3,3.03,6.76,6.03,10.47,8.56,2.06,1.4,4.23,2.64,6.46,3.75,1.11.56,2.24,1.08,3.39,1.56.34.14.68.29,1.02.44,2,3.88,4.56,7.44,7.8,10.38-1.12-.21-2.24-.43-3.36-.66-7.47-1.57-14.92-3.76-21.77-7.18-3.47-1.73-6.81-3.77-9.77-6.29-2.89-2.46-5.3-5.35-7.24-8.6-.25-.42-.5-.84-.73-1.27-.48-1.72-.88-3.45-1.28-5.19-.07-3.38-1.35-6.58-2.83-9.58-.39-.8-.81-1.59-1.25-2.36-.67-1.65-1.54-3.22-2.8-4.5-.3-.3-.62-.58-.95-.86-.36-.42-.73-.84-1.11-1.25-2.68-2.82-5.59-5.38-8.19-8.28-1-1.12-1.95-2.29-2.86-3.48-1.22-2.84-2.38-5.68-3.26-8.66-1.06-3.57-1.83-7.22-2.33-10.91-.47-3.49-.65-7-.83-10.52-.1-1.96-.17-3.91-.21-5.86.08.28.16.55.25.83.02-8.64,1.32-17.28,3.95-25.48,3.67-11.43,10-22.16,18.36-30.79,3.94-4.07,8.37-7.66,13.22-10.59,5.42-3.27,11.39-5.6,17.45-7.38,5.72-1.68,11.68-2.8,17.68-3.23-.07.02-.13.04-.2.06,1-.09,2-.12,3-.04.33-.07.66-.13.99-.19,6.01-.14,12.02.44,17.84,1.88,5.89,1.46,11.58,3.79,16.74,7,5.03,3.13,9.9,7.15,12.96,12.3,2.74,4.6,3.65,9.88,3.85,15.16.21,5.59-.36,11.26.33,16.82,1.44,11.66,9.24,20.91,17.18,28.98,2.04,2.08,4.17,4.07,6.04,6.32,1.88,2.27,3.54,4.72,4.89,7.35,2.66,5.18,3.98,11.03,3.47,16.86-.28,3.19-1.21,6.17-2.18,9.2-.89,2.8-1.48,5.58-.95,8.52.28,1.56.68,3.07,1.03,4.59-8,5.9-18.24,9.15-27.2,13.22-5.54,2.51-11.01,5.5-15.69,9.42-4.27,3.58-8.51,8.47-8.46,14.38Z"/><path class="cls-9" d="m251.17,143.58c-3.15,12.17-8.72,23.73-17.01,33.23-2.88,3.3-6.03,6.35-9.34,9.22.86-.92,1.72-1.83,2.5-2.81,1.48-1.84,2.59-4,3.71-6.08,2.24-4.19,4.1-8.57,5.64-13.06,1.67-4.89,2.94-9.93,4.15-14.95,1.2-4.96,2.29-10,2.86-15.08.32-2.89.49-5.78.45-8.69-.04-3-.45-5.89-.86-8.86-.03-.23-.42-.02-.4.18.3,2.72.22,5.52.14,8.24-.08,2.54-.29,5.08-.59,7.61-.6,5.14-1.6,10.22-2.81,15.25-1.17,4.85-2.36,9.73-3.88,14.48-1.44,4.5-3.23,8.86-5.31,13.09-1.15,2.34-2.34,4.71-3.78,6.89-.64.97-1.39,1.88-2.13,2.79-.1-.37-.21-.74-.26-1.08-.16-1.15-.21-2.32-.26-3.47-.11-2.47-.35-4.93-.42-7.39-.08-2.87,0-5.73.22-8.59.22-2.81.42-5.74,1.09-8.49.08-.34-.42-.26-.49,0-.74,2.82-1.51,5.57-1.91,8.46-.41,3.01-.6,6.08-.53,9.12,0,.25.02.5.03.75-.11-.09-.22-.18-.33-.27-.64-.58-1.24-1.21-1.79-1.88-1.07-1.29-2.09-2.78-2.58-4.4-.07-.24-.48-.02-.43.19.36,1.76.98,3.44,1.96,4.95.49.75,1.06,1.45,1.7,2.07.46.44.97.88,1.55,1.14.09,1.7.22,3.39.29,5.09.05,1.18.14,2.37.35,3.53.1.54.21,1.32.53,1.89-.39.52-.75,1.06-1.07,1.62-1.3,1.07-2.62,2.11-3.96,3.13-1.26.96-2.54,1.91-3.82,2.84-.24-.27-.75-.35-1.05-.46-.45-.16-.88-.33-1.3-.55-1.03-.54-1.96-1.25-2.85-2.01-1.54-1.32-3.23-3.14-3.7-5.18-.06-.28-.52-.05-.52.17.03,2.33,1.43,4.45,3.02,6.04.87.87,1.85,1.63,2.94,2.21.5.27,1.28.67,2.01.8-3.6,2.55-7.31,4.95-11.14,7.15-1.93.78-3.9,1.27-5.95,1.45-.02-.06-.04-.12-.06-.18-.18-.51-.36-1.01-.53-1.52-.35-1.04-.66-2.09-1.18-3.07-.99-1.88-2.48-3.42-3.53-5.26-.14-.24-.63.07-.54.3.77,1.97,2.03,3.7,2.83,5.65.41,1,.71,2.05,1.03,3.09.08.28.19.68.33,1.07-.33,0-.66,0-.99-.02-1.79-.08-3.58-.37-5.28-.93-1.51-.49-3.33-1.18-4.44-2.38-.05-.06-.18.02-.14.1.44.74.8,1.32,1.46,1.9.67.59,1.44,1.05,2.26,1.4,1.79.77,3.77,1.09,5.71,1.2.81.05,1.62.04,2.43,0,.07.02.13.05.2.05.08,0,.18-.03.26-.08.45-.03.89-.08,1.34-.14-6.04,3.1-12.3,5.66-18.82,7.63-7.48,2.26-15.16,4.27-22.98,4.85-1.92.14-3.84.19-5.76.13-.07,0-.14,0-.21.03-1.02-5.39,2.02-10.3,5.88-13.98,4.45-4.25,9.97-7.36,15.5-9.98,13.17-6.25,28.61-10.06,37.3-22.8,8.8-12.89,6.92-30.63.96-44.27-1.61-3.69-3.56-7.4-3.68-11.52-.13-4.24,1.78-7.86,3.51-11.6,1.82-3.93,2.42-8.18,1.88-12.46-.58-4.54-2.24-8.84-3.72-13.14-3.17-9.2-6.21-18.45-8.43-27.94-2-8.55-4.36-17.09-4.29-25.93.02-2.16.37-4.27,1.01-6.32.04-.13-.16-.1-.2,0-3.06,8.2-1.42,17.18.43,25.46.99,4.46,1.92,8.94,3.09,13.36.33,1.23.67,2.45,1.02,3.68-5.36-4.13-9.43-9.94-12.2-16.05-3.2-7.04-4.92-14.92-4.28-22.67.3-3.59,1.13-7.17,2.66-10.44,1.21-2.58,3.04-5.27,5.36-7.14.41-.21.83-.41,1.24-.6-.06-.06-.12-.12-.18-.18.39-.25.79-.48,1.2-.69,1.7-.83,3.53-1.04,5.31-.37,1.67.63,3,1.9,4.13,3.24,2.24,2.64,4.03,5.87,7.11,7.64,1.68.97,3.64,1.43,5.51,1.88,2.18.52,4.39.91,6.58,1.38,4.11.87,8.38,1.99,11.58,4.87,3.33,2.99,5.22,7.57,4.9,12.04-.17,2.36-1.09,4.59-1.88,6.8-.81,2.26-1.63,4.54-2.03,6.92-.4,2.38-.28,4.83.53,7.11.81,2.26,2.22,4.11,3.79,5.89,1.55,1.77,3.12,3.5,4.28,5.56.29.52.56,1.06.82,1.6,1.84,4.3,2.68,8.92,2.47,13.59-.11,2.41-.46,4.82-1.27,7.1-.86,2.4-2.27,4.28-3.96,6.15-2.97,3.28-6.1,6.52-7.2,10.94-.71,2.86-.41,5.52.33,8.34.39,1.48.73,2.94.87,4.47.11,1.15.1,2.32.16,3.47-.65,4.96-4.36,8.33-7.92,11.43-3.45,3.01-6.03,6.68-6.95,11.22-.44,2.17-.53,4.39-.4,6.6.04.65,1.05.3,1.05-.22-.05-4.71,1.1-9.67,3.96-13.48,1.51-2.02,3.55-3.55,5.42-5.21,1.88-1.68,3.53-3.56,4.73-5.78.98-1.82,1.6-3.81,1.71-5.88.06-1.18-.03-2.35-.2-3.52-.06-.86-.15-1.71-.32-2.55-.32-1.62-.72-3.17-.89-4.76-.03-.86.02-1.72.18-2.6.37-2.02,1.3-3.88,2.42-5.58,2.5-3.79,5.88-6.89,7.9-11.01.58-1.19,1.03-2.41,1.38-3.65.37.84.74,1.69,1.08,2.55,2.27,5.67,3.81,11.63,4.73,17.67,1.88,12.36,1.1,25.17-2.03,37.26Z"/><path class="cls-3" d="m255.3,110.68c-.88-9.29-3.2-18.56-7.38-26.91.39-2.27.46-4.6.24-6.94-.44-4.88-1.86-9.95-4.63-14.04-.14-.21-.3-.4-.44-.6-.38-.59-.76-1.17-1.17-1.74-1.29-1.8-2.65-3.57-4.2-5.16-.92-1.61-1.54-3.37-1.7-5.25-.42-5.11,2.34-9.74,3.55-14.56,1.06-4.25.09-8.8-2.33-12.42-5.32-7.96-15.41-7.51-23.59-10.17-1.89-.61-3.49-1.48-4.88-2.91-1.29-1.33-2.36-2.83-3.49-4.3-2.14-2.78-4.84-5.62-8.65-5.48-2.06.07-3.93.9-5.59,2.1-2.65-1.85-6.61-2.21-9.58-2.28-3.07-.08-6.11.23-9.08,1.05-3.26.89-6.23,2.34-9.2,3.93-1.44.77-2.91,1.52-4.48,1.99-1.74.52-3.52.6-5.33.39-3.42-.41-6.7-1.52-10.16-1.77-6.08-.44-12.43.72-17.74,3.77-2.38,1.36-4.45,3.2-6.79,4.62-.87.53-1.79,1.03-2.75,1.4-.7-.08-1.41,0-2.11.08-1.32.16-2.58.33-3.92.31-2.91-.03-5.75-.56-8.62-.95-2.95-.41-5.92-.51-8.88-.68-2.98-.16-5.9-.51-8.85-.91-5.3-.72-10.79-1.15-15.84,1.01-4.02,1.73-7.57,4.9-8.87,9.18-.7,2.31-.94,4.91-2.29,6.97-1.32,2.02-3.5,3.34-5.61,4.41-4.78,2.42-9.78,4.38-14.75,6.35-7.66,3.03-15.58,6.8-20.51,13.7-2.28,3.19-3.57,7.03-3.23,10.97.1,1.17.34,2.32.17,3.5-.15,1.07-.56,2.09-1.08,3.02-1.16,2.06-2.68,3.92-3.92,5.94-2.75,4.48-5.06,9.34-6.34,14.45-1.18,4.69-1.57,9.74-1.09,14.55.24,2.42.76,4.83,1.64,7.1.81,2.08,1.89,4.29,3.43,5.93,1.16,1.24,2.6,2.14,3.99,3.08,1.28.87,2.78,1.85,3.41,3.33.36.86.29,1.72.1,2.61-.27,1.3-.57,2.59-.85,3.89-.55,2.53-1.06,5.07-1.25,7.66-.38,5.06.72,10.27,3.89,14.34,2.46,3.17,6.1,5.04,10.14,4.97,5.03-.09,9.44-3.15,14.44-3.34,1.17-.05,2.29.1,3.35.41,2.05,5.29,3.6,10.79,5.47,16.15,4.47,12.82,10.69,25.79,21.7,34.25,2.88,2.22,5.97,4.05,9.4,5.29,1.78.64,3.66,1.08,5.53,1.36,1.58.24,3.2.35,4.75-.06,1.68.68,3.41,1.24,5.16,1.67,1.94.65,3.94,1.14,5.97,1.45,1.93.29,3.79.14,5.71-.2,1.57-.28,3.19-.67,4.8-.77.27.06.55.11.82.16.04,0,.09,0,.13,0,.1-.06.23-.09.38-.04.23.08.46.15.69.23.71.14,1.42.24,2.14.34,0,0,0,0,0,0,.31.04.62.07.93.11.15.02.3.04.45.05.08,0,.17.02.25.03,0,0,0,0,0,0,.22.02.43.04.65.06,0,0,0,0,0,0,.19.02.37.03.56.05.26.02.52.05.78.07.21.02.42.04.62.06,0,0,0,0,0,0,.13.01.25.02.38.03,1.81.16,3.6.43,5.39.68.1,0,.2,0,.3-.02.15-.01.26.03.34.1.26.04.52.07.79.11,2.28.3,4.57.52,6.86.67.35.02.7.04,1.05.06.3,0,.6.02.9.03,4.18.09,8.37-.05,12.55-.45.01.05.02.09.03.14.79.07,1.59.15,2.38.23,7.53.03,15-1.48,22.24-3.44,7.54-2.04,14.89-4.52,21.92-7.93,6.96-3.37,13.6-7.39,19.86-11.92,6.03-4.36,11.89-9,17.14-14.29,9.26-9.35,15.88-20.77,19.81-33.31,3.78-12.07,5.16-24.92,3.97-37.52Zm-210.65-30.3c-.97,2.01-1.79,4.09-2.65,6.15-1.57,3.76-3.24,7.84-6.36,10.6-.17.15-.44.22-.63.08-1.69-1.17-2.79-2.87-3.27-4.86-.96-3.96,0-8.24.72-12.15.37-2.02.75-4.04.91-6.08.11-1.44.13-2.94-.26-4.34-2.69,2.05-4.65,4.9-6.03,7.97-2.98,6.64-3.64,14.24-3.64,21.43,0,1.26.03,2.53.08,3.79.45,6.73,1.78,13.4,4.03,19.75,1.5,4.24,3.6,8.21,5.3,12.36,1.59,3.88,3,8.25,2.11,12.48-.73,3.49-3.17,6.59-6.78,7.31-2.38.47-4.79-.09-6.81-1.34-.67-.24-1.33-.52-1.94-.88-5.17-3.1-4.1-9.78-3.28-14.8.47-2.87,1.05-5.79.93-8.72-.15-3.59-2.21-6.51-4.32-9.29-1.36-1.79-2.78-3.54-3.91-5.49-1.26-2.17-2.03-4.54-2.46-7.01-.9-5.1-.34-10.35,1.15-15.28,1.19-3.94,3.03-7.64,4.98-11.25.01-.02.03-.05.04-.07.63-1.76,1.39-3.48,2.31-5.12,1.11-2.01,2.44-4.08,4.09-5.69,1.51-1.48,3.36-2.58,4.87-4.07.68-.68,1.3-1.48,1.47-2.45.18-1.01-.23-2.01-.57-2.94-.38-1.03-.77-2.12-.73-3.23.04-1.09.37-2.22.78-3.22.88-2.15,2.4-4,4.05-5.62,1.66-1.63,3.6-3.05,5.66-4.12,3.95-2.06,8.35-2.75,12.72-3.33,4.35-.57,9.3-1.33,12.23-4.96,1.5-1.86,2.35-3.96,2.99-6.23.16-.57.32-1.14.47-1.71-.21-1.76.31-3.62,1.28-5.08.81-1.21,2-2.41,3.37-3.13,2.25-1.94,5.14-3.21,8-3.58,2.21-.29,4.48-.05,6.56.73,2.19.82,4.05,2.11,5.76,3.69.91.84,1.8,1.72,2.84,2.4,1.16.76,2.58,1.09,3.95,1.23,2.81.3,5.61-.22,8.37-.69,2.11-.36,4.22-.79,6.34-1.09,2-.28,4.03-.43,6.04-.2,1.87.21,3.74.74,5.25,1.91,1.26.98,2.86,2.81,2.59,4.55-.24,1.54-1.93,2.26-3.23,2.73-2.27.83-4.65,1.39-6.98,2.04-4.99,1.4-9.98,2.82-14.91,4.44-9.75,3.21-19.23,7.32-27.59,13.34-4.37,3.15-8.35,6.85-12.08,10.73-3.75,3.9-7.22,8.09-10.29,12.55-1.28,1.86-2.51,3.74-3.49,5.78Zm132.15,76.33c-3.91,11.37-12.53,20.73-22.02,27.81-4.73,3.53-9.84,6.58-15.23,8.99-4.52,2.02-9.29,3.73-14.31,3.7-4-.03-8.35-1.31-10.41-5.03-2.62-4.75-.84-11.01,1.13-15.66,4.25-10.04,12.42-17.55,18.44-26.48-4.84,5.03-9.78,9.99-15.14,14.47-1.31,1.1-2.67,2.13-4.03,3.17-.99.76-1.98,1.6-3.12,2.14-.88.42-1.84.6-2.79.3-1.21-.39-2.16-1.38-2.93-2.35-3.6-4.5-4.07-10.77-4.12-16.32-.03-2.94.02-5.94.31-8.87.34-3.51,1.18-6.95,2.15-10.33,1.83-6.38,4.27-12.78,4.63-19.47-1.95,2.32-3.61,4.87-4.99,7.58-5.64,11.09-7.04,23.93-7.84,36.18-.03.42-.57.73-.89.37-3.2-3.61-6.04-7.5-8.6-11.57,3.57,7.12,8.26,13.81,10.24,21.61.8,3.15,1.36,6.4,1.52,9.65.14,2.74.11,6.04-1.47,8.42-1.68,2.52-4.85,2.28-7.48,1.66-3.29-.77-6.46-2.23-9.39-3.88-3.8-2.13-7.24-4.69-10.33-7.78-3.3-3.3-6.26-7.02-8.73-10.98-4.86-7.81-8.27-16.53-10.39-25.47-2.1-8.85-3.02-18.09-2.32-27.18.67-8.62,3.08-17.06,7.06-24.74,3.93-7.59,9.35-14.39,15.7-20.09,1.02-.92,2.07-1.81,3.13-2.69,1.63-1.45,3.32-2.83,5.08-4.12,2.76-2.02,5.68-3.83,8.71-5.41.22-.12.43-.25.64-.36,3.52-1.91,7.55-3.77,11.67-4.6,3.42-1,6.92-1.72,10.46-2.14,11.63-1.38,23.76.72,34.16,6.15,5.38,2.8,10.26,6.65,13.82,11.6,4.16,5.79,6.11,12.88,6.69,19.92.32,3.87.25,7.76.07,11.64-.17,3.61-.64,7.27-.28,10.88.59,5.86,3.25,11.11,6.03,16.2,2.83,5.18,5.65,10.42,6.69,16.3.99,5.59.3,11.42-1.53,16.77Zm20.28-73.41c-.25,5.76-2.22,11.4-5.47,16.15-2.54,3.72-7.06,8.45-11.99,5.97-2.4-1.21-3.87-3.63-4.79-6.07-1.02-2.71-1.46-5.63-1.69-8.5-.48-6.16.2-12.36-.19-18.53-.15-2.43-.46-4.86-1.04-7.23-.49-.99-1.05-1.94-1.78-2.77-.83-.94-1.71-1.84-2.56-2.77-.94-1.03-1.86-2.09-2.65-3.24-.64-.93-1.25-1.98-1.41-3.12-.27-1.94,1.21-3.69,3.07-4.03,2.14-.39,4.42.36,6.39,1.15,2.03.82,3.99,1.84,5.86,3,5.11,3.15,9.69,7.17,13.04,12.18,3.51,5.24,5.47,11.48,5.2,17.81Zm36.32.95c-2.67,4.61-6.07,9.46-5.9,15.04.1,3.26.46,6.49.45,9.76-.01,3.86-.22,7.98-1.68,11.6-1.21,3-3.72,5.54-7.2,5.05-3.44-.49-4.74-4.34-5.25-7.3-.66-3.8-.53-7.77,0-11.59.22-1.59.6-3.09,1.05-4.63.94-3.25,1.88-6.51,2.55-9.84,1.34-6.7,1.16-13.56-.79-20.13-1.87-6.3-5.2-12-8.52-17.63-3.45-5.84-7.08-11.7-8.63-18.38-.76-3.28-1.27-6.77-1.13-10.14.14-3.36.71-6.84-.14-10.14-1.19.77-2.04,1.89-2.65,3.19-1.37,2.97-1.55,6.43-1.96,9.63-.37,2.98-.75,6.28-2.54,8.8-.15.21-.47.36-.72.19-1.98-1.4-2.96-3.8-3.5-6.09-1.26-5.38-.67-11.4,1.05-16.62,1.06-3.21,2.97-7.13,6.11-8.79,1.75-1.8,4-2.9,6.43-1.44,1,.6,1.8,1.51,2.46,2.46.84,1.21,1.58,2.57,2.03,3.98.89,2.78.8,5.75,1.42,8.58.28,1.26.72,2.46,1.53,3.48.71.89,1.58,1.27,2.71,1.2,1.15-.07,2.28-.36,3.44-.42,1.26-.06,2.55.14,3.77.44,1.78.44,3.55,1.29,4.59,2.86.87,1.31,1.06,2.93.94,4.47-.3,3.85-2,7.46-3.03,11.14-.46,1.64-.87,3.37-.75,5.08.14,1.84,1,3.63,2.11,5.07,4.6,6.04,13.82,8.27,15.46,16.51,1.03,5.18-1.14,10.2-3.69,14.59Z"/><path class="cls-5" d="m255.3,110.68c-.88-9.29-3.2-18.56-7.38-26.91.39-2.27.46-4.6.24-6.94-.44-4.88-1.86-9.95-4.63-14.04-.14-.21-.3-.4-.44-.6-.38-.59-.76-1.17-1.17-1.74-1.29-1.8-2.65-3.57-4.2-5.16-.92-1.61-1.54-3.37-1.7-5.25-.42-5.11,2.34-9.74,3.55-14.56.84-3.35.41-6.87-.99-9.98.3,2.38.12,4.79-.94,6.97-1.28,2.61-3.27,4.8-5.08,7.04-1.79,2.21-3.58,4.65-3.99,7.55-.66,4.74,2.43,8.77,5.4,12.09,3.15,3.53,6.86,6.86,8.93,11.19,2.08,4.36,1.74,9.29-1.02,13.26-2.75,3.95-6.88,6.75-9.32,10.94-1.52,2.62-2.08,5.47-1.85,8.47.23,3.08,1.1,6.07,1.66,9.1.54,2.93.81,5.94.1,8.86-.79,3.22-2.78,5.87-4.89,8.35-1.1,1.29-2.24,2.55-3.26,3.91-1.15,1.54-1.95,3.16-2.48,5.01-.47,1.65-.73,3.34-.89,5.04.14-.38.27-.75.43-1.12,1.96-4.5,5.47-7.85,8.98-11.16,3.54-3.34,7.17-6.87,7.66-11.98.16-1.74.03-3.51.03-5.26,0-1.81.09-3.62.38-5.4.49-3.04,1.83-6.64,5.37-6.96,6.72-.6,7.09,9.86,7.17,14.31.14,7.98-1.19,15.76-3.8,23.31-3.72,10.8-9.61,20.84-16.86,29.65-5.34,6.49-11.48,12.27-18.43,16.99-2.91,1.98-5.9,3.88-9.07,5.41-1.31.64-2.67,1.24-4.09,1.59-.96.24-2.09.43-3.03,0-2.44-1.1-.85-4.23.22-5.69,2.3-3.14,5.32-5.74,8.16-8.38,1.13-1.05,2.29-2.08,3.22-3.31,1.89-2.49,3.61-5.12,5.08-7.89,1.48-2.77,2.76-5.66,3.42-8.74.65-3.02.78-6.13.56-9.2-.44-6.21-2.21-12.41-5.02-17.96-1.39-2.73-2.71-5.44-3.53-8.41-.67-2.44-1-4.96-1.49-7.44-.92,5.69,1.18,11.32,1.96,16.98.27,1.99.37,3.99.09,5.98-.19,1.35-.54,3.13-1.75,3.98-1.3.92-2.75-.01-3.74-.93-1.63-1.5-2.56-3.6-3.59-5.53-2.55-4.8-6.47-8.79-10.47-12.39-3.64-3.28-7.31-6.56-11.24-9.49,1.6,4.9,4.23,9.46,6.88,13.87,3.47,5.77,7.15,11.55,9.08,18.05.99,3.33,1.38,6.79,1.39,10.25.01,3.3-.36,6.65-1.36,9.8-.95,3-2.49,5.81-4.6,8.15-2.44,2.7-5.51,4.55-8.8,6.03-7.82,3.53-16.62,5.58-22.97,11.71-2.87,2.77-5.08,6.11-7.25,9.43-1.06,1.62-2.06,3.32-3.29,4.81-.97,1.18-2.12,2.2-3.36,3.08-5.21,3.7-12.16,4.82-18.37,3.67-7.25-1.34-12.95-6.43-16.92-12.43-1.72-2.6-3.24-5.43-4.26-8.38-.71-2.07-1.33-4.18-1.91-6.29-.41-1.49-.8-2.98-1.15-4.49-.06.38-.12.77-.16,1.15-.47,4.37-.14,8.85.49,13.19.63,4.31,2.81,8.23,3.35,12.57.03.24-.19.43-.38.5-.73.27-1.5.42-2.27.48-3.64.28-7.31-1.36-10.41-3.1-3.48-1.96-6.72-4.43-9.61-7.19-1.17-1.11-2.28-2.28-3.27-3.56-1.6-2.07-2.66-4.44-3.53-6.89-.87-2.45-1.58-4.96-2.72-7.31-1.1-2.28-2.64-4.24-4.39-6.06-1.78-1.84-3.71-3.53-5.52-5.34-1.75-1.76-3.37-3.67-4.89-5.64-3-3.91-5.46-8.2-7.35-12.75-2.05-4.94-3.33-10.14-4.23-15.4-1.01-5.89-1.45-11.87-1.38-17.84.07-6.04.71-12.04,1.76-17.98.5-2.86.99-5.79,1.87-8.56.68-2.15,1.54-4.27,2.05-6.47-2.02,2.29-3.73,4.82-5.09,7.56-5.6,11.21-5.13,24.17-6.59,36.31-.04.34-.43.72-.79.45-1.3-.96-2.26-2.28-3.01-3.7-1.62-3.06-2.47-6.5-3.27-9.85-.58-2.43-1.07-4.92-1.81-7.31-.29,2.73,0,5.54.48,8.22.62,3.46,1.59,6.85,2.62,10.21.86,2.82,1.85,5.55,2.94,8.28,1.16,2.91,2.3,5.89,2.7,9.02.36,2.86-.03,5.86-1.73,8.26-1.64,2.31-4.1,3.94-6.67,5.08-1.87.82-3.72,1.38-5.77,1.52-1.54.1-3.11.02-4.63-.27,1.61.73,3.38,1.11,5.24,1.08,5.03-.09,9.44-3.15,14.44-3.34,1.17-.05,2.29.1,3.35.41.24.63.48,1.26.71,1.89,2.78,1.42,5.24,3.42,7.45,5.63,2.54,2.54,4.77,5.37,6.95,8.22,2.49,3.26,4.6,6.79,6.49,10.42,3.86,7.42,6.72,15.31,9.41,23.22.09.27-.1.57-.37.64-1.3.35-2.64.3-3.93-.02.16.12.31.26.47.38,2.88,2.22,5.97,4.05,9.4,5.29,1.78.64,3.66,1.08,5.53,1.36,1.58.24,3.2.35,4.75-.06,1.68.68,3.41,1.24,5.16,1.67,1.94.65,3.94,1.14,5.97,1.45,1.93.29,3.79.14,5.71-.2,1.57-.28,3.19-.67,4.8-.77.27.06.55.11.82.16.04,0,.09,0,.13,0,.1-.06.23-.09.38-.04.23.08.46.15.69.23.71.14,1.42.24,2.14.34,0,0,0,0,0,0,.31.04.62.07.93.11.15.02.3.04.45.05.08,0,.17.02.25.03,0,0,0,0,0,0,.22.02.43.04.65.06,0,0,0,0,0,0,.19.02.37.03.56.05.26.02.52.05.78.07.21.02.42.04.62.06,0,0,0,0,0,0,.13.01.25.02.38.03,1.81.16,3.6.43,5.39.68.1,0,.2,0,.3-.02.15-.01.26.03.34.1.26.04.52.07.79.11,2.28.3,4.57.52,6.86.67.35.02.7.04,1.05.06.3,0,.6.02.9.03,4.18.09,8.37-.05,12.55-.45.01.05.02.09.03.14.79.07,1.59.15,2.38.23,7.53.03,15-1.48,22.24-3.44,7.54-2.04,14.89-4.52,21.92-7.93,6.96-3.37,13.6-7.39,19.86-11.92,6.03-4.36,11.89-9,17.14-14.29,9.26-9.35,15.88-20.77,19.81-33.31,3.78-12.07,5.16-24.92,3.97-37.52Z"/><path class="cls-5" d="m185.57,6.82c-2.42,2.79-4.35,6.02-5.86,9.38-1.12,2.5-2.09,5.15-2.4,7.89-.28,2.46-.38,4.94-.84,7.38-.37,1.97-1,4.38-2.82,5.51-2.21,1.38-5.07-.08-6.85-1.52-5.52-4.45-6.44-12.22-10.97-17.42-4.83-5.54-13.26-7.57-20.07-4.87,4.56.99,8.75,4.02,11.49,7.74,2.38,3.24,3.86,7.86,1.2,11.39-1.55,2.06-3.98,3.22-6.39,3.95-3.29.99-6.69,1.57-10.1,1.96-7.04.81-14.14.83-21.18,1.6-1.56.36-3.12.74-4.67,1.15-5.74,1.51-11.42,3.4-16.76,6.01-4.02,1.97-7.9,4.32-11.59,6.85-3.99,2.73-7.8,5.78-11.11,9.32-1.24,1.33-2.41,2.74-3.46,4.24,4.56-5.51,10.18-10.09,16.42-13.59,7.22-4.06,15.2-6.72,23.36-8.11,8.49-1.45,17.28-1.65,25.79-.29,5.21.83,10.32,2.24,15.24,4.16,4.33,1.69,8.57,3.67,12.32,6.44,3.62,2.68,6.88,5.87,9.59,9.46,1.57,2.08,2.98,4.33,4.03,6.73-.22-1.04-.5-2.07-.85-3.08-1.64-4.84-4.44-9.28-7.66-13.21-3.02-3.68-6.5-7.05-10.43-9.75-.45-.31-.25-.92.26-.98,4-.41,8.06.13,11.97.99,3.69.8,7.3,1.91,10.87,3.12,3.19,1.08,6.38,2.16,9.52,3.38,5.2,2.02,10.49,4.56,14.59,8.42-2.07-3.52-4.51-6.82-6.81-10.2-2.6-3.84-5.05-7.89-6.38-12.37-1.45-4.89-2.53-9.99-2.34-15.12.18-4.89,1.66-9.7,4.39-13.78,2.25-3.35,5.17-6.16,7.86-9.15-.35.09-.69.18-1.03.29-.15.05-.29.11-.43.17-.86.36-1.67.83-2.44,1.38-.05-.04-.12-.07-.17-.1-2.01,1.23-3.78,2.86-5.31,4.63Z"/><path class="cls-2" d="m21.33,120.68c-.41-.92-1.05-1.64-1.65-2.43-.38-.5-1.19-.37-1.63-.03-.5.39-.96.89-1.14,1.51-.09.3-.11.6-.06.9,0,.11,0,.23.02.34.17.88.65,1.77,1.23,2.46.36.43.79.82,1.33.99.43.14,1.06-.1,1.34-.45.44-.55.78-1.14.83-1.86.03-.49-.07-.99-.27-1.43Z"/><path class="cls-2" d="m18.49,93.5c-.53-1.22-1.28-2.6-2.63-3.05-1.46-.49-2.9.38-3.74,1.54-.48.66-.79,1.42-1.02,2.21-1.3,1.71-1.66,4.18-1.66,6.26,0,2.7.57,5.96,2.47,8.03.74.81,1.68,1.29,2.79,1.02,1.12-.28,1.97-1.18,2.56-2.12,1.3-2.05,1.9-4.63,2.22-7.01.32-2.35-.05-4.69-.99-6.88Z"/><path class="cls-2" d="m31.1,137.56c-.64-2.31-1.84-4.49-3.88-5.85-1.73-1.15-3.83-1.4-5.55-.09-1.5,1.13-2.28,2.95-2.69,4.76-.7,1.75-.82,3.86-.77,5.72.05,2.03.34,3.95,1.36,5.75,1.29,2.27,3.77,4.01,6.46,3.22,5.57-1.63,6.38-8.77,5.07-13.51Z"/><path class="cls-2" d="m71.41,90.55c-.17-2.91-.56-5.88-1.6-8.63-.48-1.28-1.18-2.95-2.62-3.4-3.02-.94-5.01,3.24-5.93,5.38-.12.28-.23.57-.35.85-1.13,1.63-1.89,3.56-2.54,5.43-1.65,4.76-2.96,9.72-3.61,14.72-.71,5.43-.5,10.89.62,16.25.36,1.73.8,3.46,1.4,5.13.57,1.59,1.26,3.29,2.43,4.55,1.06,1.14,2.46,1.73,4.02,1.31,2.32-.63,3.77-2.69,4.53-4.85.85-2.43,1.19-5.11,1.63-7.64.6-3.48.95-7,1.18-10.52.4-6.17,1.19-12.38.83-18.57Z"/><g class="cls-8"><path class="cls-1" d="m76.57,67.96s-.08.02-.11.03c0,0-.01,0-.02,0,.13-.02.16-.03.13-.04Z"/><path class="cls-1" d="m78.14,70.62s.01-.06.01-.08c0,.01,0,.05-.01.09,0,0,0,0,0,0Z"/><path class="cls-1" d="m80.71,67.98c-.34-1.57-1.68-2.59-3.28-2.48-.05,0-.09.02-.14.02-1.29-.4-2.57.28-3.47,1.19-1.05,1.06-1.77,2.5-2.26,3.9-.41,1.17-.75,2.52-.51,3.77.24,1.27.95,2.73,2.34,3,1.5.29,2.92-.59,3.98-1.55,1.08-.97,1.96-2.2,2.59-3.5.66-1.36,1.08-2.83.75-4.35Z"/><path class="cls-1" d="m74.52,75.36s-.02,0,0,0h0Z"/><path class="cls-1" d="m76.13,68.13s-.04.03-.06.04c.02,0,.06-.03.09-.05,0,0-.02,0-.02.01Z"/></g><path class="cls-2" d="m145.95,159.9c-1.76-3.1-5.39-4.79-8.88-4.08-3.5.71-6.52,3.23-8.71,5.95-1.56,1.95-3.17,4.37-3.95,6.9-1.42,2.27-2.53,4.79-3.06,7.38-.55,2.7-.13,6.34,2.37,7.99,2.38,1.56,5.57.85,8.03-.08,6.24-2.35,10.91-7.37,13.68-13.34,1.53-3.31,2.41-7.37.51-10.72Z"/><path class="cls-2" d="m147.81,146.32c-.22-.79-.85-1.48-1.68-1.64-1.29-.25-2.58.41-3.38,1.41-.3.38-.53.74-.69,1.2-.1.29-.06.62.11.86-.05.22-.09.45-.1.67-.03.47.03,1.04.34,1.43.46.57,1.18.65,1.87.54.38-.07.76-.21,1.1-.39.58-.3,1.14-.66,1.58-1.16.69-.79,1.14-1.86.85-2.92Z"/><path class="cls-2" d="m122.78,133.94c-.25-2.1-1.39-3.95-3.43-4.68-1.99-.71-4.06.12-5.49,1.56-1.37,1.37-2.22,3.26-2.72,5.13-1.46,2.35-2.06,5.34-1.76,7.95.25,2.12,1.43,4.51,3.78,4.74,2.2.22,4.36-1.43,5.77-2.94,2.84-3.04,4.35-7.62,3.86-11.76Z"/><path class="cls-2" d="m187.36,78.56c-.62-2.47-1.86-5.09-4.38-6.08-2.31-.91-4.69.08-6.05,2.06-1.49,2.15-1.81,5.08-1.81,7.63,0,.03,0,.06,0,.1-.4,2.12-.37,4.32-.18,6.45.19,2.13.47,4.47,1.84,6.2,2.44,3.07,6.89,2.74,9.19-.34,1.68-2.25,1.92-5.47,2.05-8.2.13-2.6-.03-5.3-.67-7.82Z"/><path class="cls-2" d="m178.95,63.7c-.19-.25-.49-.33-.78-.31-.14-.11-.37-.05-.5.04-.08.05-.15.11-.22.17,0,0-.07.06-.1.08-.02.01-.04.03-.05.04-.02.01-.03.03-.05.04,0,0-.01,0-.02.02-.1.09-.21.2-.3.32-.02.03-.05.06-.07.09-.21.28-.31.66-.37,1-.02.15-.03.3-.02.45,0,.1.01.21.02.31-.02-.16,0-.01,0,.02,0,.08.01.16.02.24.04.31.11.62.22.91.16.42.66.52,1.05.32.71-.38,1.35-.98,1.54-1.79.16-.68.06-1.38-.37-1.95Z"/><path class="cls-2" d="m213.9,32.92c-.83-1.55-2.38-2.99-4.27-2.73-1.7.24-2.83,1.7-3.45,3.22-.77,1-1.12,2.66-1.2,3.72-.1,1.29,0,2.64.29,3.9.32,1.36,1.15,2.46,2.42,3.09,1.79.87,3.87.51,5.37-.77,1.48-1.26,2.16-3.12,2.16-5.04,0-1.87-.44-3.74-1.32-5.39Z"/><path class="cls-2" d="m216.2,52.46c-.01-.25-.05-.47-.13-.71-.3-.91-1.56-.61-2.04-.04-.13.15-.26.3-.36.47-.13.22-.19.4-.24.64-.02.12-.05.24-.05.36,0,.16.01.33.05.49,0,.04.03.08.04.12,0,.07.03.14.07.2,0,0,0,0,0,0,.06.11.12.22.19.32.08.11.18.2.29.27.07.08.16.14.27.17.03,0,.06,0,.08.01.06.02.11.06.17.08.33.11.72-.03,1-.22.28-.2.52-.51.54-.86,0-.1,0-.19,0-.28,0-.03,0-.06,0-.08,0-.07,0-.16-.02-.23,0-.03.02-.06.03-.08.05-.2.1-.41.09-.62Z"/><g class="cls-8"><path class="cls-1" d="m221.41,112.01c-.2-1.03-1.1-1.51-2.08-1.4.02-.14-.03-.27-.19-.32-.24-.08-.5.1-.63.28-.12.16-.22.33-.32.51-.35.27-.63.63-.78,1.04-.17.46-.17.93-.1,1.41,0,.04.02.09.03.13-.03.15-.06.31-.09.47-.04.26-.06.51-.07.77,0,.55.08,1.08.36,1.56.35.6,1,.84,1.66.91.63.06,1.18-.48,1.41-.99.26-.56.43-1.16.57-1.75.2-.85.38-1.75.21-2.62Z"/><polygon class="cls-1" points="218.84 112.98 218.84 112.98 218.83 112.97 218.84 112.98 218.84 112.98"/></g><path class="cls-2" d="m70.9,22.15c-2.31.22-4.04,2-5.06,3.99-1.26,2.47-2.02,5.15-3.03,7.72-.44,1.1-.92,2.2-1.59,3.18-.53.78-1.55,1.59-2.51,2.18-2.33,1.45-5.12,2.08-7.79,2.56-5.85,1.05-12.13,1.29-17.4,4.31-2.72,1.56-5.2,4.07-6.08,7.15-.94,3.3.19,6.61-.25,9.93-.28,2.11-1.58,3.46-3.02,4.9-1.5,1.51-2.98,3.05-4.31,4.72-2.51,3.17-4.37,6.71-4.86,10.76-.05.4.56.17.65-.06,1.25-3.5,3.2-6.61,5.64-9.4,1.22-1.39,2.53-2.7,3.83-4.01,1.32-1.32,2.78-2.56,3.68-4.22,1.68-3.1.95-6.3.84-9.63-.06-1.67.15-3.33,1.02-4.78.7-1.16,1.67-2.16,2.76-2.95,4.53-3.27,10.79-3.25,16.1-4.03,5.21-.76,11.63-2.39,14.47-7.3,1.46-2.52,2.08-5.46,2.98-8.2.41-1.26.89-2.49,1.52-3.66.48-.9,1.13-1.7,2.15-1.99.48-.14,1.1-1.24.24-1.16Z"/><path class="cls-2" d="m151.74,59.17c-1.22-1.54-3.06-2.77-4.7-3.83-1.68-1.09-3.43-2.08-5.26-2.92-3.66-1.68-7.52-2.91-11.49-3.63-9.04-1.63-18.78-1.41-27.52,1.63-2.24.78-4.4,1.79-6.53,2.84-1.1.54-2.18,1.11-3.26,1.69-1.12.6-2.18,1.31-3.34,1.79-.18.07-.22.41.03.33.86-.27,1.72-.39,2.58-.65,1.01-.31,2.02-.64,3.01-1.01,1.87-.7,3.7-1.49,5.57-2.16,4.19-1.51,8.58-2.28,13.02-2.66,8.35-.7,17.12.47,25.01,3.3,2.12.76,4.22,1.64,6.23,2.66,2.03,1.03,3.96,2.36,6.05,3.25.29.12.84-.33.61-.63Z"/><path class="cls-2" d="m167.55,118.17c-1.2-2.33-2.02-4.75-2.52-7.33-1.11-5.7-.49-11.43-.53-17.19-.01-1.59-.04-3.18-.18-4.76-.15-1.69-.57-3.29-.84-4.96-.08-.47-.88-.05-.83.36.19,1.57.02,3.23-.06,4.81-.07,1.5-.17,3.01-.31,4.5-.27,2.99-.55,5.98-.64,8.98-.08,2.8,0,5.61.44,8.37.41,2.55,1.07,5.14,2.5,7.33.78,1.19,1.74,2.25,2.58,3.39.81,1.1,1.49,2.32,2.08,3.55.2.42.98-.07.96-.42-.11-2.4-1.6-4.56-2.67-6.64Z"/><path class="cls-2" d="m174.96,133.93c-.07-.4-.19-.79-.34-1.17-.15-.39-.33-.79-.57-1.13-.24-.34-.48-.68-.74-1.01-.33-.43-1.13.16-.89.63.34.67.56,1.43.71,2.17.04.19.07.37.09.56,0,.05.01.1.02.15,0,.09.01.1,0,.05,0,.09.01.18.01.27,0,.25.02.31.03.57,0,.24.04.45.11.68.09.29.41.4.69.33.34-.08.63-.32.75-.64.18-.47.2-.95.11-1.44Z"/><path class="cls-2" d="m219.05,66.51c-1.59-3.99-3.84-7.62-6.25-11.15-2.37-3.48-4.88-6.87-6.99-10.52-2.07-3.57-3.22-7.48-3.69-11.56-.52-4.46-.04-9.02.55-13.45.06-.46-.62-.17-.72.07-3.25,7.52-3.08,16.57.27,24.04,1.75,3.9,4.36,7.39,6.8,10.88,2.41,3.46,4.81,6.95,6.71,10.73,1.1,2.18,1.96,4.46,2.66,6.8.72,2.38,1.01,4.8,1.53,7.22.11.49.79.03.84-.27.73-4.19-.13-8.86-1.69-12.77Z"/><path class="cls-2" d="m221.35,87.86c0-.09-.02-.18-.03-.28-.02-.25-.04-.5-.06-.76-.01-.14-.03-.26-.16-.35-.11-.08-.29-.09-.42-.06-.31.08-.63.34-.66.68-.03.31-.05.62-.08.93-.01.16-.03.31-.05.47-.02.18.02.39.04.57.01.15.19.27.32.32.02,0,.04.01.06.02.27.09.56-.08.75-.25.19-.17.29-.37.31-.63,0-.09.02-.18.02-.27,0-.12-.02-.26-.04-.38Z"/><path class="cls-2" d="m240.24,121.03c-.03-1.96-.43-4.04-.06-5.97.06-.3-.41-.12-.48.05-.65,1.66-1.19,3.33-1.44,5.11-.25,1.78-.39,3.61-.96,5.32-.94,2.87-3.16,4.68-5.56,6.36-2.54,1.78-5.02,3.53-6.8,6.13-1.51,2.21-2.33,4.78-2.86,7.37-.3,1.45-.46,2.93-.67,4.39-.23,1.56-.55,3.13-.61,4.71-.03.85,1.18.53,1.45.03,1.31-2.54,1.64-5.47,2.26-8.23.56-2.51,1.17-5,2.6-7.18,3.28-5.02,10.09-6.56,12.38-12.42.7-1.78.79-3.77.76-5.66Z"/></g></g></g></svg>