<?xml version="1.0" encoding="UTF-8"?><svg id="Calque_2" xmlns="http://www.w3.org/2000/svg" viewBox="0 0 1838.46 1368.8"><defs><style>.cls-1{fill:#fff;}.cls-2{fill:#9dc64c;}.cls-3{fill:#64902f;}.cls-4{fill:#f1e2c1;}.cls-5{fill:#78a52c;}.cls-6{fill:#42722d;}</style></defs><g id="Capa_1"><path class="cls-5" d="m1825.3,620.25c-1.55-15.6-7.43-30.42-17.21-42.68-4.42-5.54-9.88-12.07-16.45-19.41,8,8.94,3.82,23.17-7.72,26.45C1195.03,752.12,238.41,729.11,48.15,722.61c-18.9-.65-28.14-23.49-15.16-36.75-9.81,9.44-16.35,21.85-18.35,35.48-4.24,28.57-10.49,79.55-13.24,145.12,60.26,40.53,145.49,31.26,220.91,33.98,36.4,1.31,72.63,6.15,109.06,6.79,93.13,1.61,184.14-24.3,275.02-44.63,85.13-19.03,171.32-33.29,258.03-42.72,43.13-4.69,87.03-9.81,130.44-10.52,37.78-.61,73.51,2.9,110.57-8.18,19.53-5.84,42.75-13.69,58.46-.71,9.35,7.73,13.08,21.17,23.38,27.58,10.47,6.52,24.29,3.57,35.33-1.92,11.04-5.49,21.05-13.32,32.92-16.68,16.73-4.73,34.43.08,51.56,3.02,60.1,10.3,118.02-10.73,177.52-16.48,64.12-6.2,130.45-9.03,192.68,10.58,9.41,2.96,9.31,16.47-.13,19.36-26.64,8.16-60.99,11.62-80.32,33.62-3.27,3.73-6.62,8.12-11.52,8.88-4.55.71-8.83-1.99-13.15-3.58-19.19-7.09-39.13,7.51-53.7,21.87-14.57,14.36-31.77,30.79-52.04,27.98-9.7-1.35-18.14-7.05-26.84-11.55-19.5-10.09-41.87-14.55-63.75-12.71-35.67,3-73.14,4.74-109.02,5.46-40,.81-72.84-3.32-108.46,20.6-13.6,9.13-26.41,21.1-42.62,23.47-15.23,2.23-30.13-4.54-44.45-10.2-96.43-38.13-208.7-13.7-310.16-8.89-178.6-12.13-354.64,84.66-532.06,60.83-63.02-8.47-128.86-31.36-188.01-8.07-12.6,4.97-24.87,12.03-38.38,12.67-.57.03-1.14.03-1.71.03,1.08,31.83,3.26,65.34,6.89,99.99h4.5c87.38.27,174.75-2.01,262.04-5.65,68.57-2.86,147.76-8.31,206.64,33.48,6.77,4.8,15.5,10.29,22.65,6.06,2.56-1.51,4.31-4.04,5.99-6.5,9.67-14.15,19.62-28.59,33.54-38.58,27.72-19.89,64.88-18.26,98.91-15.8,106.12,7.67,220.03-11,327.25-14.35,36.07-1.04,78.05,4.17,111.85-9.11,27.6-10.85,57.41-38.32,89.05-25.66,7.88,3.15,14.56,8.71,22.22,12.36,22.5,10.7,48.87,3.43,73.32-1.36,46.31-9.07,96.6-7.84,137.83,15.12,3.71,2.06,7.86,4.38,11.95,3.26,4.07-1.11,6.47-5.17,8.83-8.67,22.44-33.34,62.49-24.43,96.54-28.75,43.99-5.54,88.33-11.66,132.52-8.13,10.35.84,21.44,2.56,28.84,9.81,9.17,9.01,9.68,23.86,6.15,36.23-9.91,34.85-45.07,57.1-80.32,65.44-35.26,8.34-72.06,6.02-108.09,9.71-84.06,8.64-162.74,49.88-247.13,53.91-40.77,1.92-81.33-4.91-121.93-9.21-79.02-8.34-162.5-13.95-241.59-6.18-55.79,5.48-114.64,12.13-159.54,45.71-11.43,8.54-22.35,18.99-36.33,21.81-17.64,3.56-34.92-5.95-51.69-12.5-32.9-12.87-69.98-14.75-104.02-5.35-15.93,4.4-31.19,11.23-47.42,14.45-17.04,3.36-34.58,2.66-51.96,1.95-75.69-3.13-151.38-6.25-227.06-9.34-63.12-2.62-126.81-5.28-188.35-18.82,7.26,39.12,16.6,78.95,28.43,118.88,7.53,25.34,30.48,42.99,56.9,44.06,90.85,3.61,314.31,11.55,574.21,13.67-259.91-2.11-483.37-10.06-574.21-13.67,49.89.12,99.8-.82,149.68-1.92,141.03-3.12,282.01-9.19,422.77-18.59,51.25-3.42,96.18-10.56,145.79-23.64,4.29-1.13,8.77-2.27,13.11-1.32,7.61,1.68,12.34,9.09,18.62,13.71,9.86,7.26,23.09,7.33,35.34,7.1,2.87-.05,5.83-.13,8.44-1.31,4.39-1.98,6.86-6.58,9.92-10.3,13.11-15.94,37.07-15.88,57.66-14.46,30.7,2.12,54.8-.6,84.75-4.17,33.56-3.99,73.41-10.17,106.66-2.21,25.77,6.17,49.88,21.81,76.34,20.25,42.62-2.5,72.45-48.07,114.84-53.2,14.47-1.75,29.93,1.33,43.16-4.77,16.21-7.47,24.45-26.7,40.57-34.37,19.03-9.06,41.42.92,62.45-.4,21.16-1.32,35.59-14.65,54.12-22.31,5.46-2.26,11.13-4.2,16.89-6.02-4.16-1.53-6.98-6.11-5.63-10.65.8-2.69,1.59-5.37,2.39-8.06,1.81-6.08,10.53-6.08,12.33,0,.8,2.69,1.6,5.37,2.39,8.06.81,2.74.11,5.51-1.49,7.62,10.7-3.14,21.52-6.11,31.78-9.88,14.58-5.35,44.95-26.14,59.09-14.36,2.84,2.36,4.76,5.96,8.17,7.38,3.86,1.6,8.44-.23,11.36-3.22,2.92-2.99,4.59-6.94,6.44-10.69,17.39-35.33,45.76-37.66,74.24-58.31,16.57-12.02,65.73-46.72,66.36-70.2h0c3.26-121.67,2.35-271.46-11.6-414.13Z"/><path class="cls-2" d="m48.15,722.61c190.26,6.49,1146.88,29.5,1735.77-138.01,11.54-3.28,15.71-17.52,7.72-26.45h0s0,0,0-.01c-.29-.33-.61-.67-.9-1-.77-.86-1.54-1.72-2.34-2.59-.43-.47-.88-.96-1.33-1.44-.69-.75-1.37-1.49-2.08-2.26-.51-.55-1.03-1.1-1.55-1.65-.67-.72-1.34-1.43-2.03-2.16-.55-.58-1.12-1.18-1.69-1.77-.69-.72-1.38-1.44-2.09-2.17-.59-.61-1.18-1.22-1.78-1.83-.72-.73-1.44-1.47-2.17-2.22-.61-.62-1.22-1.24-1.84-1.86-.78-.78-1.57-1.57-2.36-2.36-.61-.61-1.22-1.21-1.84-1.82-.83-.82-1.68-1.65-2.53-2.48-.62-.61-1.24-1.21-1.87-1.82-.91-.88-1.85-1.78-2.78-2.67-.6-.57-1.18-1.14-1.79-1.71-1.16-1.1-2.36-2.22-3.56-3.34-.4-.37-.78-.74-1.18-1.11-1.62-1.5-3.26-3.02-4.94-4.55-.44-.4-.89-.8-1.33-1.2-1.25-1.13-2.51-2.27-3.8-3.42-.65-.58-1.32-1.17-1.98-1.75-1.11-.99-2.23-1.98-3.37-2.97-.72-.63-1.45-1.26-2.18-1.89-1.11-.96-2.23-1.93-3.36-2.9-.78-.66-1.56-1.33-2.35-2-1.11-.95-2.24-1.89-3.37-2.85-.82-.69-1.66-1.38-2.49-2.08-1.15-.95-2.31-1.91-3.48-2.87-.84-.69-1.68-1.38-2.53-2.07-1.21-.98-2.44-1.97-3.67-2.96-.85-.68-1.69-1.36-2.55-2.05-1.29-1.02-2.6-2.05-3.91-3.08-.83-.65-1.66-1.31-2.5-1.96-1.46-1.13-2.94-2.27-4.43-3.41-.73-.56-1.44-1.11-2.17-1.67-2.03-1.55-4.1-3.1-6.19-4.66-.21-.16-.42-.31-.63-.47-2.31-1.72-4.67-3.45-7.05-5.19-.66-.48-1.34-.96-2-1.44-1.73-1.25-3.47-2.5-5.23-3.76-.89-.63-1.79-1.26-2.69-1.89-1.58-1.11-3.16-2.22-4.76-3.34-1-.69-2.01-1.39-3.02-2.08-1.54-1.06-3.08-2.11-4.64-3.17-1.06-.72-2.13-1.44-3.21-2.16-1.56-1.05-3.13-2.1-4.72-3.15-1.1-.73-2.2-1.45-3.31-2.18-1.6-1.05-3.22-2.1-4.85-3.15-1.12-.72-2.24-1.45-3.37-2.17-1.68-1.07-3.37-2.14-5.08-3.22-1.11-.7-2.22-1.4-3.34-2.1-1.8-1.13-3.63-2.25-5.47-3.38-1.06-.65-2.1-1.3-3.17-1.94-2.09-1.27-4.21-2.54-6.33-3.81-.84-.5-1.66-1-2.51-1.5-3.01-1.78-6.05-3.57-9.13-5.35-.07-.04-.13-.08-.2-.11-2.99-1.73-6.02-3.46-9.09-5.18-.96-.54-1.94-1.08-2.9-1.62-2.19-1.22-4.39-2.45-6.62-3.67-1.19-.65-2.4-1.31-3.61-1.96-2.04-1.11-4.09-2.21-6.16-3.32-1.31-.7-2.63-1.39-3.95-2.09-2.01-1.06-4.03-2.12-6.06-3.18-1.38-.72-2.77-1.43-4.16-2.15-2.02-1.04-4.06-2.07-6.11-3.11-1.42-.72-2.85-1.43-4.29-2.15-2.08-1.04-4.17-2.07-6.28-3.1-1.07-.53-2.15-1.05-3.23-1.58-.42,4.4-1.1,8.76-2.08,13.05,29.31,23.5,55.05,53.31,78.3,82.77,5.99,7.6,12.26,17.45,8.24,26.26-2.32,5.1-7.52,8.18-12.55,10.64-18.44,9.03-38.82,14.07-59.35,14.68,15.21,19.38-7.37,48.49-31.71,52.28-24.35,3.79-48.63-6.37-73.25-7.38-33.57-1.37-69.53,13.96-88.29,41.83-60.13,23.67-134.66,16.47-190.21-16.53-58.89,8.67-119.55,17.28-177.37,3.13-25.36-6.2-49.45-16.65-73.41-27.04-41.67-18.08-83.35-36.16-125.03-54.25-9.59-4.16-19.36-8.43-27.15-15.4-16.01-14.33-18.24-39.42-9.33-58.58.48-10.87,3.56-21.65,7.54-31.84,9.67-24.76,29.56-50.17,56.12-49.24-.74-3.64-1.33-7.34-1.78-11.1-257.16,75.66-601.42,193.46-785.21,326.04-1.92,1.38-3.72,2.9-5.45,4.48-.15.14-.32.25-.47.39-.27.25-.48.53-.73.79-12.98,13.26-3.74,36.11,15.16,36.75Z"/><path class="cls-2" d="m1692.98,543.26c9.9,0,9.89,15.36,0,15.36s-9.88-15.36,0-15.36Z"/><path class="cls-2" d="m1459.83,617.03c2.38,2.36,2.38,6.43,0,8.78-.44.43-.87.87-1.31,1.3-2.53,2.51-6.66,3.07-9.75,1.26-2.47-1.45-3.86-4.14-3.98-6.95-.32-7.12,8.96-10.43,13.74-5.69.44.43.87.87,1.31,1.3Z"/><path class="cls-2" d="m1441.05,599.31c1.48-2.52,3.8-3.42,6.55-3.76.27-.03,2.69-.42,1.17-.15.84-.14,1.68-.28,2.52-.41,2.64-.43,5.01.33,6.5,2.64,1.35,2.1.86,5.27-.9,6.97-1.33,1.28-2.64,2.57-3.92,3.91-3.73,3.9-10.28,2.34-12.3-2.44-.93-2.21-.85-4.65.38-6.75Z"/><path class="cls-2" d="m1072.47,643.07c.46-.41.92-.82,1.38-1.23,2.68-2.4,6.53-3.14,9.75-1.26,2.48,1.45,3.86,4.14,3.98,6.95.14,3.19-2.12,6.16-4.95,7.36-3.08,1.3-6.34.53-8.79-1.66-.46-.41-.92-.82-1.38-1.23-2.44-2.19-2.44-6.72,0-8.91Z"/><path class="cls-2" d="m933.35,623.99c10.14,0,10.12,15.73,0,15.73s-10.12-15.73,0-15.73Z"/><path class="cls-2" d="m868.09,588.28c9.07,0,9.06,14.07,0,14.07s-9.06-14.07,0-14.07Z"/><path class="cls-2" d="m802.83,632.47c9.31,0,9.29,14.44,0,14.44s-9.29-14.44,0-14.44Z"/><path class="cls-2" d="m761.07,543.72c9.31,0,9.29,14.44,0,14.44s-9.29-14.44,0-14.44Z"/><path class="cls-2" d="m693.2,602.39c4.33,0,4.33,6.72,0,6.72s-4.33-6.72,0-6.72Z"/><path class="cls-2" d="m644.61,464.2c2.46-.53,4.93-1.06,7.39-1.59,4.84-1.05,9.72,2.27,9.72,7.41s-4.88,8.45-9.72,7.41c-2.47-.53-4.93-1.06-7.39-1.6-5.75-1.24-5.74-10.38,0-11.62Z"/><path class="cls-2" d="m641.28,642.56c1.96,1.37,3.92,2.74,5.87,4.11,3.67,2.57,4.78,7.7,1.42,11.05-3.38,3.38-8.48,2.25-11.05-1.42-1.37-1.96-2.74-3.91-4.11-5.87-3.25-4.64,3.23-11.12,7.87-7.87Z"/><path class="cls-2" d="m520.96,534.82c2.02-.55,3.83-.56,5.86-.16,1.85.36,3.27,1.26,4.37,2.5.26.15.53.28.79.45,2.69,1.77,3.89,4.97,2.62,7.98-.43,1.01-1.08,1.74-1.82,2.34-1.15,4.76-6.44,7.35-11,6.14-3.45-.92-6.43-3.85-7.42-7.27-1.44-4.97,1.52-10.61,6.6-11.98Z"/><path class="cls-2" d="m494.8,627.8c8.6,0,8.58,13.34,0,13.34s-8.58-13.34,0-13.34Z"/><path class="cls-2" d="m419.1,666.13c9.67,0,9.65,14.99,0,14.99s-9.65-14.99,0-14.99Z"/><path class="cls-2" d="m387.78,619.23c9.54,0,9.53,14.81,0,14.81s-9.53-14.81,0-14.81Z"/><path class="cls-2" d="m361.67,661c9.54,0,9.53,14.81,0,14.81s-9.53-14.81,0-14.81Z"/><path class="cls-2" d="m165.89,657.93c10.14,0,10.12,15.73,0,15.73s-10.12-15.73,0-15.73Z"/><path class="cls-4" d="m229.07,981.71c177.42,23.83,353.47-72.96,532.06-60.83,101.45-4.81,213.72-29.24,310.16,8.89,14.31,5.66,29.21,12.43,44.45,10.2,16.21-2.37,29.01-14.34,42.62-23.47,35.62-23.91,68.46-19.78,108.46-20.6,35.88-.73,73.35-2.46,109.02-5.46,21.88-1.84,44.25,2.62,63.75,12.71,8.7,4.5,17.14,10.2,26.84,11.55,20.26,2.81,37.47-13.62,52.04-27.98,14.57-14.36,34.51-28.96,53.7-21.87,4.32,1.6,8.6,4.29,13.15,3.58,4.9-.76,8.25-5.16,11.52-8.88,19.34-22,53.68-25.46,80.32-33.62,9.44-2.89,9.54-16.4.13-19.36-62.24-19.61-128.57-16.78-192.68-10.58-59.51,5.75-117.42,26.78-177.52,16.48-17.13-2.94-34.84-7.74-51.56-3.02-11.87,3.35-21.88,11.19-32.92,16.68-11.04,5.49-24.86,8.44-35.33,1.92-10.3-6.42-14.02-19.86-23.38-27.58-15.71-12.98-38.93-5.13-58.46.71-37.06,11.08-72.79,7.57-110.57,8.18-43.41.71-87.31,5.83-130.44,10.52-86.71,9.43-172.91,23.69-258.03,42.72-90.88,20.33-181.89,46.25-275.02,44.63-36.43-.64-72.66-5.48-109.06-6.79-75.42-2.72-160.65,6.55-220.91-33.98-1.55,36-1.98,76.39-.44,119.88.57,0,1.14,0,1.71-.03,13.51-.64,25.78-7.7,38.38-12.67,59.15-23.29,124.99-.4,188.01,8.07Z"/><path class="cls-4" d="m1682.33,1003.86c-7.39-7.26-18.48-8.97-28.84-9.81-44.2-3.53-88.53,2.59-132.52,8.13-34.05,4.31-74.1-4.59-96.54,28.75-2.36,3.5-4.76,7.56-8.83,8.67-4.09,1.12-8.24-1.19-11.95-3.26-41.23-22.96-91.52-24.19-137.83-15.12-24.45,4.79-50.82,12.06-73.32,1.36-7.66-3.64-14.35-9.2-22.22-12.36-31.64-12.66-61.45,14.81-89.05,25.66-33.79,13.29-75.77,8.08-111.85,9.11-107.22,3.35-221.13,22.01-327.25,14.35-34.02-2.46-71.19-4.08-98.91,15.8-13.92,9.99-23.87,24.43-33.54,38.58-1.67,2.45-3.43,4.98-5.99,6.5-7.14,4.23-15.88-1.26-22.65-6.06-58.88-41.78-138.07-36.33-206.64-33.48-87.29,3.64-174.66,5.92-262.04,5.65h-4.5c3.56,34.18,8.5,69.44,15.19,105.33,61.54,13.55,125.23,16.2,188.35,18.82,75.69,3.09,151.38,6.22,227.06,9.34,17.38.71,34.92,1.41,51.96-1.95,16.23-3.23,31.49-10.05,47.42-14.45,34.05-9.41,71.12-7.53,104.02,5.35,16.77,6.55,34.05,16.06,51.69,12.5,13.98-2.82,24.91-13.27,36.33-21.81,44.9-33.58,103.75-40.23,159.54-45.71,79.08-7.76,162.57-2.15,241.59,6.18,40.6,4.3,81.16,11.12,121.93,9.21,84.39-4.03,163.07-45.27,247.13-53.91,36.03-3.7,72.83-1.38,108.09-9.71,35.26-8.33,70.41-30.58,80.32-65.44,3.53-12.37,3.03-27.22-6.15-36.23Z"/><path class="cls-4" d="m807.88,513.22c22.45,11.38,47.9,15.06,72.82,18.57,44.18,6.22,89.46,32.91,133.65,26.72,55.04-7.71,101.39-50.79,156.91-53.44,36.39-1.74,70.93,14.24,106.25,23.19,51.44,13.04,106.59,11.04,156.95-5.68,36.16-12.01,71.54-31.69,109.57-29.26,8.76.56,17.76,2.29,26.06-1.33,3.49-1.52,6.48-4.15,8.22-7.53,3.71-7.19.05-12.54-3.8-17.14-9.04-10.8-24.66-21.32-39-28.58-5.54-2.81-7.18-9.84-3.8-15.05,5.88-9.06,9.95-19.18,12.36-29.75.97-4.29,1.66-8.65,2.08-13.05,0,0,0,0,0,0,2.03-21.45-2.47-43.8-13.14-62.57-20.31-35.76-59.61-58.48-100.33-64.18-4.38-.61-9.01-1.14-12.52-3.82-4.75-3.63-6.1-10.08-7.3-15.94-7.04-34.19-23.16-69.73-54.49-85.11-32.84-16.13-75-8.08-109.98,2.65-3-27.37-6.08-55.08-15.75-80.87-9.68-25.78-26.82-49.85-51.46-62.13-33.75-16.81-75.92-8.29-107.07,12.96-31.15,21.25-53.12,53.33-72.07,85.93-9.89,17.01-24.47,45.42-24.64,65.09-25.12,12.62-53.84,16.44-79.35,28.26-52.2,24.19-80.17,94.83-73.18,153.04.45,3.75,1.04,7.46,1.78,11.1-26.57-.92-46.46,24.48-56.12,49.24-3.98,10.2-7.06,20.98-7.54,31.84-.15,3.25-.08,6.52.29,9.77,2.86,25.01,22.17,45.71,44.62,57.1Z"/><path class="cls-1" d="m932.68,358.55c12.6-5.04,20.7-17.47,25.74-30.07,5.03-12.6,7.87-26.11,14.24-38.09,20.49-38.52,70.71-51.04,97.8-85.24,27.06-34.15,26.33-83.55,50.62-119.72,5.53-8.23,12.34-15.75,16.18-24.89,3.84-9.14,4-20.82-2.94-27.9-6.94-7.08-38,2.02-40.08,11.71-18.32,1.65-31.26,18.28-40.65,34.1-16.12,27.18-28.86,56.38-37.8,86.69-3.83,12.97-7.47,26.99-17.66,35.87-6.05,5.27-13.76,8.12-21.2,11.12-26.39,10.64-52.17,25.04-69.97,47.24-17.8,22.2-26.3,53.45-15.84,79.91,4.99,12.62,28.95,24.29,41.55,19.25Z"/><path class="cls-1" d="m842.85,390.56c-13.19-1.59-25.7,4.61-34.37,14.86-4.17,4.93-7.36,10.25-9.55,16.33-1.49,4.13-1.66,7.53-.64,11.72-.08.11-.15.28-.24.56-.4,1.34.24,3.93.4,5.2.6,4.81,3.2,8.74,8.33,9.44,4.28.58,9.8-2.16,10.55-6.88.28-1.79.71-3.5,1.19-5.2,3.56-4.43,5.29-10.33,9.59-14.5,4.66-4.53,11.57-8.13,17.64-10.12,12.28-4.03,9-19.97-2.9-21.4Z"/><path class="cls-1" d="m1229.04,232.33c16.74-8.19,31.95-17.66,50.83-20.29,17.87-2.49,37.81,5.3,54.84-.55,9.34-3.21,16.22-14.88,9.84-24.18-15.55-22.69-48.62-21.82-73.02-17.85-26.33,4.29-51.53,16.01-67.78,37.58-12.17,16.17,10.55,32.5,25.29,25.29Z"/><path class="cls-1" d="m1050.32,282.16c-23.28,19.2-50.74,54.89-43.33,86.81,2.82,12.16,20.3,17.21,28.75,7.59,8.43-9.61,12.16-21.07,18.42-32,6.64-11.59,15.32-21.13,25.41-29.82,20.14-17.35,43.61-22.47,66.16-34.95,10.33-5.72,6.2-18.86-2.97-22.7-29.85-12.5-69.34,6.01-92.44,25.06Z"/><path class="cls-1" d="m945.84,443.79c-.54-.19-3.13-1.37-1.9-.53-1.48-.81-3.04-1.32-4.73-1.4-4.53-.61-8.84,1.01-12.7,3.31-5.11,3.04-9.4,7.41-12.35,12.57-3.85,6.73-1.8,16.5,5.31,20.26,6.89,3.64,16.34,1.97,20.26-5.31.19-.36.41-.72.61-1.07.31-.28.67-.75.9-1.01.99-.53,2-1.06,2.98-1.6,1.78-.97,3.24-2.31,4.48-3.9,4.05-2.24,6.11-7.16,5.51-11.6-.64-4.79-3.89-8.13-8.37-9.71Zm-5.81,28.03c.06-.02.15-.09.23-.15-.08.08-.16.13-.23.15Zm.62-.76c.06-.11.1-.17.15-.25.03-.01.05-.01.09-.04-.13.23-.31.5-.48.72.08-.14.16-.29.25-.43Zm9.8-8.76c-.09.09-.17.17-.26.26,1.08-1.96,2.02-3.77.26-.26Z"/><path class="cls-1" d="m1354.82,314.09c-10.14,18.02,15.7,34.41,27.39,20.06,27.83-22.08,54.43-18.08,87.61-14.63,8.93.93,13.58-10.18,9.77-17.03-25.82-46.49-102.44-28.12-124.77,11.6Z"/><path class="cls-3" d="m1770.54,1104.58c-28.48,20.65-56.85,22.98-74.24,58.31-1.85,3.75-3.52,7.7-6.44,10.69-2.92,2.99-7.5,4.83-11.36,3.22-3.41-1.42-5.33-5.01-8.17-7.38-14.14-11.78-44.51,9.01-59.09,14.36-10.27,3.77-21.08,6.74-31.78,9.88,1.6-2.1,2.31-4.87,1.49-7.62-.8-2.69-1.59-5.37-2.39-8.06-1.81-6.08-10.53-6.08-12.33,0-.8,2.69-1.59,5.37-2.39,8.06-1.35,4.55,1.47,9.12,5.63,10.65-5.76,1.82-11.43,3.76-16.89,6.02-18.53,7.66-32.96,20.99-54.12,22.31-21.03,1.31-43.43-8.66-62.45.4-16.12,7.67-24.36,26.9-40.57,34.37-13.23,6.1-28.7,3.02-43.16,4.77-42.39,5.13-72.21,50.7-114.84,53.2-26.45,1.55-50.57-14.08-76.34-20.25-33.25-7.97-73.09-1.79-106.66,2.21-29.95,3.56-54.04,6.29-84.75,4.17-20.59-1.42-44.55-1.48-57.66,14.46-3.06,3.72-5.53,8.32-9.92,10.3-2.62,1.18-5.57,1.25-8.44,1.31-12.24.23-25.48.16-35.34-7.1-6.28-4.62-11-12.04-18.62-13.71-4.33-.95-8.82.19-13.11,1.32-49.61,13.08-94.54,20.21-145.79,23.64-140.75,9.4-281.74,15.47-422.77,18.59-49.88,1.1-99.79,2.03-149.68,1.92,105.71,4.21,390.99,14.27,704.31,14.2,125.33-.03,255.14-1.68,379.75-5.98,15.57-.54,31.07-1.12,46.46-1.74,20.52-.83,40.87-1.74,60.99-2.72,15.09-.74,30.06-1.53,44.88-2.36,9.88-.56,19.7-1.13,29.45-1.73,4.87-.3,9.73-.61,14.57-.92,9.68-.62,19.28-1.27,28.81-1.93,4.76-.33,9.51-.67,14.23-1.02,9.45-.69,18.81-1.4,28.09-2.14,120.61-9.58,226.56-23.16,305.54-42.05,34.28-8.2,59.32-37.61,61.81-72.8.6-8.55,1.24-17.95,1.9-28.15,2.83-44.18,5.95-103.16,7.75-170.88-.63,23.48-49.78,58.18-66.36,70.2Z"/><path class="cls-3" d="m1290.48,968.84c9.17,0,9.19-14.26,0-14.26s-9.19,14.26,0,14.26Z"/><path class="cls-3" d="m1374.76,969.12c9.53,0,9.54-14.81,0-14.81s-9.54,14.81,0,14.81Z"/><path class="cls-3" d="m1336.98,932.07c10.48,0,10.49-16.28,0-16.28s-10.49,16.28,0,16.28Z"/><path class="cls-3" d="m717.35,990.53c3.22-.89,4.94-3.2,6.13-6.13.46-1.12.89-2.21,1.22-3.37,1.48-5.13-3.53-10.14-8.66-8.66-1.16.33-2.25.77-3.37,1.22-2.93,1.2-5.24,2.91-6.13,6.13-.83,3.02.05,6.33,2.26,8.55,2.21,2.22,5.52,3.09,8.54,2.26Z"/><path class="cls-3" d="m781.83,1003.91c.29,2.61.97,4.71,1.89,7.13.94,2.46,2.2,4.31,4.41,5.74,2.56,1.65,5.85,1.63,8.55.48,4.85-2.04,8.03-8.87,4.59-13.63-1.42-1.97-2.75-4.32-4.62-5.87-2.77-2.29-6.03-3.26-9.49-1.8-2.89,1.22-5.72,4.56-5.34,7.94Z"/><path class="cls-3" d="m953.34,961.78c11.3,0,11.32-17.57,0-17.57s-11.32,17.57,0,17.57Z"/><path class="cls-3" d="m452.32,1055.59c2.15-.35,4.08-.99,6.13-1.71,4.79-1.68,7.59-6.56,5.51-11.48-1.84-4.36-7.81-7.02-12.07-4.07-2.33,1.61-4.59,3.19-6.6,5.19-2.19,2.17-2.85,6.09-1.13,8.75,1.87,2.9,4.85,3.86,8.16,3.32Z"/><path class="cls-3" d="m194.78,1041.96c9.76,0,9.78-15.18,0-15.18s-9.78,15.18,0,15.18Z"/><path class="cls-3" d="m147.12,808.81c3.01,1.76,7.31,1.32,9.75-1.26.47-.5.94-1,1.41-1.5,2.25-2.38,2.26-6,0-8.39-.47-.5-.94-1-1.41-1.5-4.69-4.97-14.05-1.26-13.74,5.69.13,2.81,1.51,5.5,3.99,6.95Z"/><path class="cls-3" d="m244.19,828.36c11.66,0,11.67-18.12,0-18.12s-11.68,18.12,0,18.12Z"/><path class="cls-3" d="m191.88,789.57c10.36,0,10.37-16.1,0-16.1s-10.37,16.1,0,16.1Z"/><path class="cls-3" d="m188.97,854.02c7.28,0,7.29-11.32,0-11.32s-7.29,11.32,0,11.32Z"/><path class="cls-3" d="m453.45,818.35c10,0,10.02-15.54,0-15.54s-10.02,15.54,0,15.54Z"/><path class="cls-3" d="m1055.06,763.96c11.07,0,11.08-17.2,0-17.2s-11.08,17.2,0,17.2Z"/><path class="cls-3" d="m1319.54,770.23c4.74,0,9.28-4.17,9.06-9.06-.22-4.91-3.98-9.06-9.06-9.06-4.74,0-9.28,4.17-9.06,9.06.22,4.91,3.98,9.06,9.06,9.06Z"/><path class="cls-3" d="m1246.88,731.9c10.95,0,10.97-17.01,0-17.01s-10.97,17.01,0,17.01Z"/><path class="cls-3" d="m1554.95,717.18c10.71,0,10.73-16.65,0-16.65s-10.73,16.65,0,16.65Z"/><path class="cls-3" d="m1663.89,684.27c-.23-.69.28,1.47.29,1.56.09.89.18,1.79.27,2.68.37,3.63,2.85,6.76,6.76,6.76s6.39-3.11,6.76-6.76c.09-.89.18-1.79.27-2.68.05-.45.09-.89.13-1.34-.03-.52.03-.59.16-.22.52-1.67.9-3.3,1.23-5.02,1.09-5.6-2.5-11.23-8.56-11.23s-9.65,5.63-8.56,11.23c.33,1.72.69,3.36,1.23,5.02Z"/><path class="cls-3" d="m1694.46,755.33c11.18,0,11.2-17.38,0-17.38s-11.21,17.38,0,17.38Z"/><path class="cls-3" d="m1747.09,731.75c.94,2.55,2.25,4.52,4.57,5.96,2.17,1.34,5.04,1.59,7.48.96,4.19-1.1,6.99-4.69,7.17-8.97.12-2.69-1.27-4.89-3.25-6.29-1.48-1.76-3.51-2.88-5.83-3.19-6.02-.81-12.47,5.2-10.14,11.53Z"/><path class="cls-3" d="m1749.68,663.4c8.82,0,8.84-13.71,0-13.71s-8.83,13.71,0,13.71Z"/><path class="cls-3" d="m945.63,1251.85c3.66,2.14,8.53,1.48,11.53-1.49.49-.49.97-.96,1.41-1.5,2.74-3.27,2.76-7.17,0-10.47-.45-.53-.92-1.01-1.41-1.49-2.74-2.71-6.88-3.45-10.39-1.97-3.34,1.41-6.02,4.92-5.85,8.7.15,3.32,1.79,6.51,4.71,8.22Z"/><path class="cls-3" d="m1038.69,1281.09c1.54-.36,3.03-1.04,4.52-1.59,2.58-.96,4.53-2.31,6.02-4.63,1.73-2.68,1.7-6.12.51-8.96-2.24-5.32-9.14-8.11-14.28-4.81-1.27.82-2.57,1.6-3.81,2.48-2.21,1.57-4.04,3.32-4.79,6.05-.57,2.07-.38,4.2.45,6.16,1.91,4.53,6.71,6.41,11.4,5.31Z"/><path class="cls-3" d="m888.9,1298.87c1.37-.53,2.71-1.07,4.06-1.66,5.37-2.34,5.37-11.81,0-14.15-1.34-.58-2.69-1.14-4.06-1.66-5.6-2.15-11.46,3.29-11.46,8.73s5.88,10.88,11.46,8.74Z"/><path class="cls-3" d="m1412.54,1213.53c9.89,0,9.9-15.36,0-15.36s-9.9,15.36,0,15.36Z"/><path class="cls-3" d="m1264.32,1251.22c9.76,0,9.78-15.18,0-15.18s-9.78,15.18,0,15.18Z"/><path class="cls-3" d="m1606.44,915.36c3.44,1.45,7.97.86,10.6-2.01,2.31-2.52,3.42-6.07,2.49-9.44-1.2-4.35-5.05-6.82-9.35-7.12-.98-.07-1.92-.09-2.91-.06-3.79.12-6.73,3.04-6.85,6.85-.03.98-.01,1.93.06,2.91.28,3.93,2.25,7.3,5.96,8.87Z"/><path class="cls-3" d="m1758.4,921.14c-3,.13-5.88,1.61-7.43,4.26-1.74,2.97-1.59,8.1,1.35,10.42.54.43,1.08.86,1.62,1.28,2.92,2.31,5.96,2.33,8.91,0,.54-.43,1.08-.85,1.62-1.28,2.67-2.11,3-6.51,1.78-9.39-1.27-3.02-4.45-5.44-7.86-5.29Z"/><path class="cls-3" d="m1764.21,1008.1c11.06,0,11.08-17.2,0-17.2s-11.09,17.2,0,17.2Z"/><path class="cls-3" d="m625.44,1318.55c1.06,5.46,8.03,7.69,12.5,5.08,4.85-2.84,5.38-9.32,1.72-13.36-1.38-1.53-2.76-3.05-4.14-4.58-1.93-2.13-5.78-2.61-8.2-1.06-2.66,1.72-3.7,4.57-3.1,7.63.41,2.09.81,4.18,1.22,6.28Z"/><path class="cls-3" d="m585.85,788.62c2.38,2.25,6,2.26,8.39,0,.5-.47,1-.94,1.5-1.41,4.97-4.7,1.26-14.05-5.69-13.74-2.81.12-5.5,1.51-6.95,3.99-1.76,3.01-1.32,7.31,1.26,9.75.5.47,1,.94,1.5,1.41Z"/><path class="cls-3" d="m325.57,1335.6c9.88,0,9.9-15.36,0-15.36s-9.9,15.36,0,15.36Z"/><path class="cls-3" d="m84.76,1254.97c-.35.11-.71.22-1.07.33-3.65,1.14-6.78,4.66-6.6,8.67.18,4.06,2.68,7.44,6.6,8.67.36.11.72.22,1.07.33,5.84,1.82,11.82-3.11,11.82-9s-5.98-10.82-11.82-9Z"/><path class="cls-3" d="m130.84,1316.44c2.27,0,4.67-.99,6.28-2.6,2.42-2.42,2.8-5.41,2.28-8.64-.23-1.44-.46-2.89-.7-4.33-.54-3.36-4.59-6.13-7.86-5.99-3.31.15-7.28,2.39-7.86,5.99-.23,1.44-.47,2.89-.7,4.33-.5,3.11-.21,6.35,2.28,8.64,1.74,1.59,3.87,2.6,6.28,2.6Z"/><path class="cls-3" d="m139.56,1273.22c3.26,0,6.34-1.77,7.98-4.58,1.75-2.99,1.52-6.33,0-9.33-.68-1.34-1.45-2.63-2.62-3.61-3.35-2.81-7.35-2.83-10.73,0-1.18.99-1.94,2.26-2.62,3.61-1.52,3-1.75,6.34,0,9.33,1.64,2.81,4.72,4.58,7.98,4.58Z"/><path class="cls-3" d="m462.17,1316.26c11.18,0,11.2-17.38,0-17.38s-11.21,17.38,0,17.38Z"/><path class="cls-3" d="m607.48,987.02c10.12,0,10.14-15.73,0-15.73s-10.14,15.73,0,15.73Z"/><path class="cls-3" d="m313.94,1018.43c9.41,0,9.43-14.63,0-14.63s-9.43,14.63,0,14.63Z"/><path class="cls-3" d="m340.1,816.64c11.54,0,11.56-17.93,0-17.93s-11.56,17.93,0,17.93Z"/><path class="cls-3" d="m784.79,769.4c.91-3.19,1.45-7.43-1.24-9.9-2.72-2.5-6.56-2.19-9.9-1.24-6.54,1.86-8.85,10.29-4,15.14s13.28,2.54,15.14-4Z"/><path class="cls-5" d="m725.43,1368.57c-9.59-.05-19.13-.11-28.63-.18,9.5.07,19.04.13,28.63.18Z"/><path class="cls-5" d="m754.31,1368.7c-9.66-.04-19.29-.08-28.88-.13,9.59.05,19.21.1,28.88.13Z"/><path class="cls-5" d="m772.3,504.93c7.79,6.97,17.56,11.24,27.15,15.4,41.68,18.08,83.35,36.16,125.03,54.25,23.95,10.39,48.04,20.83,73.41,27.04,57.82,14.15,118.48,5.54,177.37-3.13,55.55,33,130.08,40.19,190.21,16.53,18.76-27.87,54.72-43.21,88.29-41.83,24.62,1.01,48.9,11.18,73.25,7.38,24.34-3.8,46.92-32.9,31.71-52.28,20.52-.61,40.91-5.65,59.35-14.68,5.03-2.46,10.23-5.54,12.55-10.64,4.01-8.81-2.25-18.66-8.24-26.26-23.24-29.47-48.99-59.28-78.3-82.77-2.4,10.57-6.47,20.69-12.36,29.75-3.38,5.21-1.75,12.24,3.8,15.05,14.35,7.27,29.97,17.78,39,28.58,3.85,4.6,7.51,9.95,3.8,17.14-1.74,3.38-4.74,6.01-8.22,7.53-8.3,3.62-17.3,1.89-26.06,1.33-38.02-2.43-73.41,17.25-109.57,29.26-50.36,16.73-105.51,18.73-156.95,5.68-35.31-8.95-69.86-24.93-106.25-23.19-55.51,2.65-101.87,45.73-156.91,53.44-44.18,6.19-89.47-20.5-133.65-26.72-24.92-3.51-50.37-7.18-72.82-18.57-22.45-11.38-41.77-32.08-44.62-57.1-.37-3.26-.43-6.52-.29-9.77-8.91,19.16-6.68,44.24,9.33,58.58Z"/><path class="cls-5" d="m419.1,681.12c9.65,0,9.67-14.99,0-14.99s-9.66,14.99,0,14.99Z"/><path class="cls-5" d="m387.78,634.04c9.53,0,9.54-14.81,0-14.81s-9.54,14.81,0,14.81Z"/><path class="cls-5" d="m361.67,675.81c9.53,0,9.54-14.81,0-14.81s-9.54,14.81,0,14.81Z"/><path class="cls-5" d="m802.83,646.91c9.29,0,9.31-14.44,0-14.44s-9.3,14.44,0,14.44Z"/><path class="cls-5" d="m761.07,558.16c9.29,0,9.31-14.44,0-14.44s-9.31,14.44,0,14.44Z"/><path class="cls-5" d="m868.09,602.35c9.06,0,9.07-14.07,0-14.07s-9.07,14.07,0,14.07Z"/><path class="cls-5" d="m693.2,609.12c4.33,0,4.33-6.72,0-6.72s-4.33,6.72,0,6.72Z"/><path class="cls-5" d="m644.61,475.82c2.46.53,4.93,1.06,7.39,1.6,4.84,1.04,9.72-2.24,9.72-7.41s-4.88-8.45-9.72-7.41c-2.47.53-4.93,1.06-7.39,1.59-5.74,1.24-5.75,10.38,0,11.62Z"/><path class="cls-5" d="m165.89,673.66c10.12,0,10.14-15.73,0-15.73s-10.14,15.73,0,15.73Z"/><path class="cls-5" d="m494.8,641.14c8.58,0,8.6-13.34,0-13.34s-8.6,13.34,0,13.34Z"/><path class="cls-5" d="m1448.76,628.37c3.09,1.81,7.22,1.25,9.75-1.26.44-.43.87-.87,1.31-1.3,2.38-2.35,2.38-6.42,0-8.78-.44-.43-.87-.87-1.31-1.3-4.78-4.74-14.06-1.43-13.74,5.69.12,2.81,1.51,5.5,3.98,6.95Z"/><path class="cls-5" d="m1447.61,595.56c-2.75.34-5.07,1.23-6.55,3.76-1.23,2.11-1.32,4.54-.38,6.75,2.02,4.78,8.57,6.34,12.3,2.44,1.28-1.34,2.59-2.63,3.92-3.91,1.76-1.7,2.25-4.87.9-6.97-1.49-2.31-3.86-3.07-6.5-2.64-.84.14-1.68.27-2.52.41,1.52-.26-.9.12-1.17.15Z"/><path class="cls-5" d="m1692.98,558.62c9.89,0,9.9-15.36,0-15.36s-9.9,15.36,0,15.36Z"/><path class="cls-5" d="m1073.85,641.83c-.46.41-.92.82-1.38,1.23-2.44,2.19-2.44,6.73,0,8.91.46.41.92.82,1.38,1.23,2.45,2.19,5.71,2.96,8.79,1.66,2.82-1.19,5.09-4.16,4.95-7.36-.12-2.81-1.51-5.5-3.98-6.95-3.22-1.89-7.08-1.14-9.75,1.26Z"/><path class="cls-5" d="m933.35,639.72c10.12,0,10.14-15.73,0-15.73s-10.14,15.73,0,15.73Z"/><path class="cls-5" d="m637.52,656.29c2.57,3.67,7.68,4.8,11.05,1.42,3.35-3.36,2.25-8.48-1.42-11.05-1.96-1.37-3.92-2.74-5.87-4.11-4.64-3.25-11.12,3.22-7.87,7.87,1.37,1.96,2.74,3.91,4.11,5.87Z"/><path class="cls-5" d="m521.78,554.07c4.56,1.21,9.86-1.37,11-6.14.74-.6,1.39-1.33,1.82-2.34,1.27-3.01.08-6.21-2.62-7.98-.26-.17-.53-.3-.79-.45-1.1-1.24-2.52-2.14-4.37-2.5-2.03-.4-3.84-.38-5.86.16-5.08,1.38-8.05,7.01-6.6,11.98.99,3.43,3.97,6.35,7.42,7.27Z"/><path class="cls-6" d="m1668.22,1258.74c4.72,2.76,11.63.32,12.9-5.25.48-2.12.79-4.13.35-6.11.08-.6.15-1.2.23-1.8.3-2.39-1.82-4.83-3.82-5.67-2.34-.98-4.94-.44-6.78,1.29-.3.28-.6.57-.91.85-1.38.64-2.6,1.58-3.75,2.9-3.69,4.22-3.32,10.81,1.78,13.8Z"/><path class="cls-6" d="m1678.56,1211.8c2.84,0,5.52-1.54,6.95-3.99,1.34-2.29,1.65-5.86,0-8.12-.48-.65-.95-1.31-1.43-1.96-2.97-4.08-8.07-4.08-11.04,0-.48.65-.95,1.31-1.43,1.96-1.65,2.26-1.34,5.83,0,8.12,1.43,2.45,4.11,3.99,6.95,3.99Z"/><path class="cls-6" d="m1756.88,1200.98c10.83,0,10.85-16.83,0-16.83s-10.85,16.83,0,16.83Z"/><path class="cls-6" d="m1723.32,1247.53c9.53,0,9.54-14.81,0-14.81s-9.54,14.81,0,14.81Z"/><path class="cls-6" d="m1396.01,1321.09c10.59,0,10.61-16.46,0-16.46s-10.61,16.46,0,16.46Z"/><path class="cls-6" d="m1040.73,1342.83c9.77,0,9.78-15.18,0-15.18s-9.78,15.18,0,15.18Z"/><path class="cls-6" d="m763.62,1344.18c-1.12.61-2.23,1.23-3.35,1.84-3.94,2.17-4.5,7.81-1.4,10.91,3.09,3.09,8.74,2.54,10.91-1.4.61-1.12,1.23-2.24,1.84-3.35,2.84-5.15-2.84-10.83-7.99-7.99Z"/></g></svg>