<?xml version="1.0" encoding="UTF-8"?><svg id="Capa_1" xmlns="http://www.w3.org/2000/svg" viewBox="0 0 1771.17 1749"><defs><style>.cls-1{fill:#e15c1f;}.cls-2{fill:#d5521e;}.cls-3{fill:#ec6825;}.cls-4{fill:#69b437;}</style></defs><path class="cls-3" d="m1073.07,593.21c-2.18-32.73-6.55-34.92-26.19-65.47-19.64-30.55-74.2-39.28-127.71-55.55-19.21-5.84-28.96-9.21-33.59-13.41-.07.05-.13.09-.19.14-32.73,24.01-43.64,30.55-56.74,61.1-13.09,30.55-10.91,43.65-28.37,69.83-17.46,26.19-28.37,32.73-41.46,74.2-13.09,41.46-13.09,74.2-13.09,74.2,0,0-56.26,32.25-78.09,64.99-21.82,32.73-28.37,48.01-48.01,89.47-19.64,41.46-37.71,66.75-39.9,86.39,0,0-15.28,4.36-32.73,28.37-17.46,24-21.21,35.82-40.85,83.83-19.64,48.01-35.39,84.69-52.85,104.33-17.46,19.64-43.64,30.96-56.74,58.03-13.09,27.08-15.28,51.08-15.28,51.08,0,0-32.73,6.55-50.19,30.55-17.46,24-19.64,45.83-50.19,74.2-30.55,28.37-61.1,58.92-91.66,85.11-30.55,26.19-50.98,59.82-50.59,83.83.39,24-25.97,22.63-41.25,31.35-15.28,8.73-17.28,16.66-39.1,45.02-14.33,18.62-42.71,30.67-53.76,43.53,8.54,2.99,17.75,7.44,25.39,12.2,23.26,14.5,34.92,4.36,61-15.28,26.08-19.64,2.28-13.09.1-32.73-2.18-19.64,30.55,13.09,71.77,10.91,41.22-2.18,15.52-19.64,22.43-40.17,6.91-20.53-17.82-25.3-22.18-34.03-4.36-8.73,50.19,21.82,89.47,26.19,39.28,4.36,28.37-21.82,61.1-54.56,32.73-32.73,56.74-26.19,69.29-34.92,12.55-8.73,28.91-10.91,35.46-26.19,6.55-15.27-15.28-30.55-35.46-58.92-20.18-28.37-27.83-32.73-45.38-61.1-17.55-28.37,26.28,10.91,44.23,26.19,17.94,15.28,25.7,52.37,38.8,56.74,13.09,4.36,28.37,13.09,39.28,0,10.91-13.09-4.36-19.64-17.2-43.44-12.84-23.8-8.98-19.84-26.44-41.67-17.46-21.82-17.46-39.28-31.49-58.92-14.03-19.64,24.95,28.37,57.93,50.19,32.99,21.82,25.93,45.83,34.66,50.19,8.73,4.36,67.65-63.29,87.29-89.47,19.64-26.19,13.09-32.73-2.18-54.56-15.28-21.82,6.55-28.37,30.55-21.82,24,6.55,28.37-8.73,52.37-24,24-15.28,39.28-52.37,64.26-89.47,24.98-37.1,38.31-48.01,58.75-76.38,20.44-28.37-33.54-43.64-46.63-61.1-13.09-17.46,24,0,56.74,13.09,32.73,13.09,28.37,2.18,56.74-19.64,28.37-21.82,24.01-43.65,50.19-87.29,26.19-43.65,19.64-15.28,17.46-50.19-2.18-34.92-30.55-43.64-54.56-63.29-24-19.64-50.19-34.92-67.65-52.37-17.46-17.46-15.28-13.09,0-10.91,15.28,2.18,67.65,43.64,98.2,61.1,30.55,17.46,65.47,17.46,85.75,2.18,20.28-15.27-37.74-52.37-74.84-72.01-37.1-19.64-34.92-28.37-37.1-45.83-2.18-17.46,113.48,65.47,154.94,72.01,41.46,6.55,30.55-19.64,41.46-45.83,10.91-26.19-15.28-37.1-37.1-59.16-21.82-22.06-45.83-25.95-72.01-43.41-26.19-17.46-6.55-13.09,15.27-13.09s65.47,43.65,98.2,54.56c32.73,10.91,21.82-26.19,19.64-58.92Z"/><path class="cls-1" d="m1134.17,518.5c-15.28-17.96-26.19-12.59-65.47-30.07-39.28-17.48-30.55-17.44-67.65-34.89-12.51-5.88-23.72-12.83-33.17-19.47-6.78-.5-13-.65-18.22-.39-.2.01-.38.03-.58.04-3.54.2-6.65.58-9.14,1.18,0,0-.34,0-1,.05-3.46.25-15.68,1.78-33.62,11.33-5.98,3.18-12.59,7.26-19.72,12.47,0,0-.02.01-.03.02,4.63,4.21,14.37,7.57,33.59,13.41,53.51,16.27,108.07,25,127.71,55.55,19.64,30.55,24,32.73,26.19,65.47,2.18,32.73,13.09,69.83-19.64,58.92-32.73-10.91-76.38-54.56-98.2-54.56s-41.46-4.36-15.27,13.09c26.19,17.46,50.19,21.35,72.01,43.41,21.82,22.06,48.01,32.97,37.1,59.16-10.91,26.19,0,52.37-41.46,45.83-41.46-6.55-157.12-89.47-154.94-72.01,2.18,17.46,0,26.19,37.1,45.83,37.1,19.64,95.12,56.74,74.84,72.01-20.28,15.28-55.2,15.28-85.75-2.18-30.55-17.46-82.93-58.92-98.2-61.1-15.28-2.18-17.46-6.55,0,10.91,17.46,17.46,43.65,32.73,67.65,52.37,24,19.64,52.37,28.37,54.56,63.29,2.18,34.92,8.73,6.55-17.46,50.19-26.19,43.64-21.82,65.47-50.19,87.29-28.37,21.82-24,32.73-56.74,19.64-32.73-13.09-69.83-30.55-56.74-13.09,13.09,17.46,67.08,32.73,46.63,61.1-20.45,28.37-33.78,39.28-58.75,76.38-24.98,37.1-40.25,74.2-64.26,89.47-24.01,15.28-28.37,30.55-52.37,24-24.01-6.55-45.83,0-30.55,21.82,15.28,21.82,21.82,28.37,2.18,54.56-19.64,26.19-78.56,93.84-87.29,89.47-8.73-4.37-1.67-28.37-34.66-50.19-32.99-21.82-71.97-69.83-57.93-50.19,14.03,19.64,14.03,37.1,31.49,58.92,17.46,21.82,13.6,17.86,26.44,41.67,12.84,23.8,28.11,30.35,17.2,43.44-10.91,13.09-26.19,4.36-39.28,0-13.09-4.36-20.85-41.46-38.8-56.74-17.94-15.27-61.78-54.56-44.23-26.19,17.55,28.37,25.2,32.73,45.38,61.1,20.18,28.37,42,43.65,35.46,58.92-6.55,15.28-22.9,17.46-35.46,26.19-12.55,8.73-36.56,2.18-69.29,34.92-32.73,32.73-21.82,58.92-61.1,54.56-39.28-4.36-93.84-34.92-89.47-26.19,4.36,8.73,29.09,13.5,22.18,34.03-6.91,20.53,18.79,37.99-22.43,40.17-41.22,2.18-73.95-30.55-71.77-10.91,2.18,19.64,25.98,13.09-.1,32.73-26.08,19.64-37.74,29.78-61,15.28-7.64-4.76-16.85-9.21-25.39-12.2-.01,0-.03,0-.04-.01-.65.75-1.21,1.51-1.73,2.27-.15.21-.28.43-.41.64-.38.6-.71,1.19-1.01,1.8-.1.2-.2.39-.29.59-.34.77-.61,1.55-.79,2.34-.03.14-.04.28-.07.42-.13.66-.2,1.32-.21,1.99,0,.24,0,.47.01.71.03.67.12,1.35.28,2.04.03.15.05.31.09.46.22.83.55,1.67.96,2.52.11.22.25.44.37.66.36.67.79,1.34,1.28,2.02.18.25.36.51.56.77.69.89,1.46,1.79,2.38,2.71,0,0,0,.01.01.02,5.47,5.47,11.99,10,18.92,13.76,13.06-3.28,31.75-4.91,44.37-3.85,26.19,2.18,54.56-24,96.02-34.92,41.46-10.91,69.83-37.1,106.93-45.83,37.1-8.73,93.84-56.74,112.54-67.65,18.7-10.91,46.77-30.55,57.93-61.1,11.17-30.55,17.2-48.01,56.48-54.56,39.28-6.55,26.19-34.92,69.83-69.83,43.64-34.92,30.55-45.83,44.98-74.2,14.43-28.37-7.88-17.46-7.42-28.37.46-10.91,23.55,2.18,49.73-13.09,26.19-15.28,45.83-39.28,88.11-87.29,42.28-48.01,55.92-96.02,64.65-102.05,8.73-6.03-4.36-26.71-15.28-39.8-10.91-13.09,28.37-2.18,56.74-15.28,28.37-13.09,39.28-52.37,68.69-80.74,29.41-28.37,14.24-54.56,7.14-78.56-7.09-24.01,28.92,4.36,46.38,0,17.46-4.36,32.73-30.55,48.01-50.19,15.28-19.64-6.55-10.91-21.82-37.1-15.28-26.19,19.64,0,40.75,0s26.9-10.91,42.18-32.73c15.28-21.82,13.09-26.19,2.18-52.37-10.91-26.19,24-10.91,39.28-33.08,15.28-22.16,8.73-45.49,10.91-78.22,2.18-32.73,15.28-56.74,0-74.7Z"/><path class="cls-2" d="m1212.87,597.35c-.02-.27-.05-.55-.07-.82-.3-3.9-.85-7.9-1.74-12.05-.35-1.64-.75-3.3-1.2-4.99-.9-3.38-2.01-6.86-3.35-10.49-3.35-9.06-8.16-19-14.81-30.25-3.32-5.63-7.35-10.88-11.91-15.8-1.52-1.64-3.1-3.24-4.74-4.81-.11-.11-.23-.2-.34-.31-2.31-2.2-4.73-4.32-7.24-6.37-4.5-3.69-9.28-7.17-14.26-10.44-3.16-2.07-6.39-4.07-9.68-5.99-3.29-1.92-6.63-3.76-9.99-5.54-1.68-.89-3.37-1.76-5.07-2.61-2.85-1.43-5.7-2.81-8.56-4.15-1.08-.51-2.16-1.01-3.24-1.51-6.8-3.13-13.54-6.01-20.05-8.69-.76.33-1.53.66-2.24.97,1.03,4.13,1.59,12.2-12.6,5.58l-18.52-8.64s.67-1.11,1.89-3.12c-5.66.79-11.53,1.04-15.3,3.12,0,0,3.11-4.99,8.44-13.6-1.72-.78-3.38-1.55-4.88-2.3-1.7-.85-3.54-1.68-5.43-2.49-.52-.22-1.05-.44-1.58-.67-1.6-.66-3.25-1.31-4.95-1.95-.39-.15-.76-.3-1.16-.44-2.04-.74-4.15-1.46-6.31-2.16-.62-.2-1.26-.4-1.89-.59-1.66-.52-3.35-1.03-5.07-1.52-.7-.2-1.39-.41-2.1-.6-2.19-.61-4.4-1.2-6.65-1.76-.78-.2-1.57-.38-2.35-.57-1.57-.38-3.14-.75-4.72-1.11-1.03-.23-2.07-.46-3.1-.69-1.49-.32-2.99-.62-4.49-.92-1.72-.34-3.44-.67-5.16-.98-1.23-.23-2.47-.45-3.7-.66-1.33-.23-2.65-.44-3.98-.65-.93-.15-1.85-.28-2.77-.42-2.94-.44-5.83-.83-8.68-1.17-.29-.03-.59-.08-.88-.11-1.47-.17-2.9-.32-4.33-.46-.67-.07-1.34-.13-2-.19-1.44-.13-2.86-.26-4.25-.36,0,0,0,0,0,0,9.44,6.64,20.66,13.59,33.17,19.47,37.1,17.46,28.37,17.41,67.65,34.89,39.28,17.48,50.19,12.11,65.47,30.07,15.28,17.96,2.18,41.97,0,74.7-2.18,32.73,4.36,56.05-10.91,78.22-15.28,22.16-50.19,6.89-39.28,33.08,10.91,26.19,13.09,30.55-2.18,52.37-15.28,21.82-21.07,32.73-42.18,32.73s-56.02-26.19-40.75,0c15.28,26.19,37.1,17.46,21.82,37.1-15.28,19.64-30.55,45.83-48.01,50.19-17.46,4.36-53.47-24.01-46.38,0,7.09,24.01,22.26,50.19-7.14,78.56-29.41,28.37-40.32,67.65-68.69,80.74-28.37,13.09-67.65,2.18-56.74,15.28,10.91,13.09,24.01,33.78,15.28,39.8-8.73,6.03-22.36,54.04-64.65,102.05-42.28,48.01-61.92,72.01-88.11,87.29-26.19,15.28-49.27,2.18-49.73,13.09-.46,10.91,21.85,0,7.42,28.37-14.43,28.37-1.34,39.28-44.98,74.2-43.65,34.92-30.55,63.29-69.83,69.83-39.28,6.55-45.32,24-56.48,54.56-11.17,30.55-39.23,50.19-57.93,61.1-18.7,10.91-75.44,58.92-112.54,67.65-37.1,8.73-65.47,34.92-106.93,45.83-41.46,10.91-69.83,37.1-96.02,34.92-12.62-1.05-31.31.58-44.37,3.85h0s0,0,0,0c12.96,7.04,27.4,11.27,39.43,13.36,0,0,0,0,.02,0,.33.06.67.12,1,.17,0,0,0,0,.01,0,1.05.17,2.07.33,3.07.47,0,0,0,0,.01,0,.5.07.99.13,1.48.19,0,0,.01,0,.02,0,.88.11,1.77.23,2.61.31,0,0,0,0,0,0,1.24.13,2.43.23,3.57.31h0c.51.03.97.05,1.45.07,0,0,.02,0,.03,0,.78.04,1.54.07,2.26.08h0c.22,0,.43,0,.64,0,.21,0,.43,0,.64,0,0,0,0,0,.01,0,.73,0,1.42-.02,2.07-.05,0,0,0,0,.01,0,.05,0,.1,0,.15,0,.27-.01.55-.02.8-.04,0,0,0,0,0,0,.91-.06,1.76-.15,2.49-.27,0,0,.02,0,.02,0,1.64-.27,3.89-.85,6.59-1.67,4.06-1.22,9.15-2.97,14.73-5,1.63-.59,3.3-1.21,5-1.84,3.4-1.27,6.91-2.61,10.43-3.98,7.04-2.73,14.12-5.55,20.4-8.08,1.57-.63,3.09-1.25,4.54-1.83,1.66-.67,3.24-1.32,4.72-1.92,4.43-1.8,7.93-3.23,9.98-4.05,3.41-1.36,11.12-5.16,20.64-9.94,3.81-1.91,7.9-3.98,12.13-6.11,6.34-3.19,12.98-6.53,19.37-9.7,4.26-2.11,8.42-4.15,12.3-6.01,1.94-.93,3.82-1.82,5.61-2.66,5.37-2.51,9.96-4.54,13.23-5.77,2.18-.82,4.63-1.83,7.29-2.99,3.99-1.74,8.47-3.82,13.24-6.11,1.59-.76,3.21-1.55,4.86-2.35,16.5-8.05,35.62-17.93,50.62-24.75,6.6-3,14.71-6.25,23.38-9.72,2.85-1.14,5.77-2.32,8.72-3.51,20.63-8.38,42.73-18.05,55.19-29.13,10.13-9,24.46-19.74,37.88-30.43,4.16-3.32,8.23-6.62,12.06-9.87,4.78-4.05,9.2-8.02,12.93-11.79,2.34-2.36,4.41-4.65,6.15-6.83,9.56-12,14.61-25.04,16.83-32.01,1.01-3.17,1.44-5.09,1.44-5.09,0,0,2.13.43,5.46.75,2,.19,4.43.35,7.09.35,7.09,0,15.82-1.09,22.37-5.46,3.65-2.43,8.03-5.91,12.85-9.99,1.56-1.32,3.17-2.71,4.81-4.16,3.29-2.89,6.74-5.99,10.28-9.2,8.84-8.04,18.23-16.79,27.08-24.66,1.86-1.66,3.95-3.56,6.13-5.58,2.12-1.96,4.33-4.03,6.67-6.27,1.58-1.51,3.21-3.08,4.86-4.69,4.96-4.83,10.19-10.07,15.37-15.43,5.77-5.98,11.46-12.1,16.67-18.02,1.74-1.97,3.42-3.92,5.03-5.83,6.57-7.79,12-14.98,15.1-20.55,10.91-19.64,11.78-39.21,11.78-39.21h0s2.8-.6,6.86-1.88c.11-.03.2-.06.31-.09,2.54-.81,5.56-1.88,8.69-3.24.79-.34,1.58-.7,2.38-1.08,4.89-2.31,9.85-5.29,13.62-9.06,4.77-4.77,8.29-8.12,12.57-12.47,1.53-1.55,3.15-3.23,4.96-5.14,1.81-1.91,3.81-4.07,6.09-6.56,2.74-3,5.88-6.49,9.58-10.68,1.23-1.4,2.53-2.87,3.89-4.42,2.73-3.11,5.62-6.47,8.62-10,21.03-24.71,47.64-57.92,62.92-75.11,1.09-1.23,2.22-2.49,3.39-3.78,1.17-1.29,2.37-2.62,3.6-3.97,17.22-18.92,39.65-43.26,45.38-64.27,2.46-9,3.38-18.31,3.57-26.43.06-2.71.05-5.28-.02-7.67-.07-2.31-.18-4.44-.32-6.35-.07-1.05-.15-2.03-.24-2.94-.39-4.25-.81-6.81-.81-6.81,0,0,6.97,3.48,15.78,4.15,6.79.52,14.67-.63,21.32-6.33.95-.82,1.85-1.59,2.69-2.33,3.38-2.96,5.95-5.37,8.28-7.74.58-.59,1.15-1.18,1.72-1.78,2.82-2.97,5.51-6.08,9.2-10.32,1.48-1.69,3.11-3.57,4.98-5.69,2.8-3.18,6.13-6.92,10.22-11.42,21.82-24,58.92-80.74,87.29-117.84,1.77-2.32,3.52-4.65,5.24-7,1.72-2.35,3.42-4.71,5.1-7.08,3.36-4.74,6.63-9.51,9.84-14.29,1.6-2.39,3.19-4.77,4.76-7.16,12.57-19.06,24.18-37.85,35.92-54.18,2.94-4.08,5.88-8.01,8.85-11.76,1.49-1.87,2.98-3.7,4.48-5.47,24.01-28.37,42.44-48.01,57.71-69.83.95-1.36,1.95-2.79,2.97-4.27,3.08-4.44,6.45-9.37,9.93-14.69,1.16-1.77,2.34-3.59,3.52-5.44,4.43-6.95,8.95-14.45,13.23-22.25,1.42-2.6,2.82-5.24,4.18-7.9,1.63-3.2,3.2-6.43,4.69-9.69,4.48-9.78,8.23-19.77,10.69-29.59,1.63-6.52,3.13-12.65,4.32-18.64.4-2,.75-3.97,1.07-5.94.63-3.94,1.1-7.84,1.33-11.78.23-3.94.24-7.91-.04-11.97Z"/><path class="cls-4" d="m1749.57,38.27c-15.28-10.91-277.15,93.84-412.45,174.58-53.81,32.11-108.09,77.61-154.01,120.77,31.03-42.1,79.14-108.38,112.26-146.79,40.92-47.46,44.19-40.92,75.29-60.56,31.1-19.64,26.19-21.28,54.01-36.01,27.82-14.73,22.91-8.18,47.46-9.82,24.55-1.64,14.73-8.18,19.64-16.37,4.91-8.18-4.91-19.64-11.46-26.6-6.55-6.96-4.91-17.59-8.18-25.77-3.27-8.18-19.64,0-19.64,0-73.77,45.19-151.8,129.31-218.47,213.3,16.19-29,33.63-60,58.07-90.55,45.83-57.28,58.04-40.09,80.55-61.31,22.5-21.22-.35-35.25-15.34-53.26-14.99-18,.26-27.82-27.56-11.82-27.82,16-76.92,103.48-127.66,201.68-41.93,81.15-118.45,206.12-143.78,247.1-5.32,8.61-8.44,13.6-8.44,13.6,3.77-2.09,9.63-2.33,15.3-3.12-1.22,2.01-1.89,3.12-1.89,3.12l18.52,8.64c14.2,6.62,13.64-1.44,12.6-5.58.71-.31,1.48-.64,2.24-.97,37.4-16.17,136.48-56.89,188.91-58.2,65.47-1.64,103.11,8.96,140.76,19.21,37.64,10.25,68.74,42.27,86.74,36.9,18-5.37,31.1-1.35,18-23.82-13.09-22.47,4.91-36.23-16.37-42.44-21.28-6.21-45.83,4.58-75.29,0-29.46-4.58-32.73-9.49-67.1-11.12-26.41-1.26-52.17-11.82-80.75-10.85,32.83-3.91,63.58-1.9,100.13-5.69,63.28-6.55,170.22,37.1,202.95,34.92,32.73-2.18,65.47-18.8,54.56-35.59-10.91-16.79,0-29.88-17.46-36.43-17.46-6.55-43.65-4.36-89.47,0-45.83,4.36-148.44-21.36-192.06-4.13-43.62,17.23-87.27,10.68-124.37,28.14-12.74,6-29.78,13.86-48.71,23.83,15-12.36,32.6-25.89,46.24-33.47,29.46-16.37,67.1-44.19,112.93-54.01,45.83-9.82,32.73-8.18,72.01-8.18s19.64,3.27,47.46,6.55c27.82,3.27,24.55,6.55,37.33,8.18,12.78,1.64,13.4-8.18,24.86-14.73,11.46-6.55,8.18-9.82,18.4-14.73,10.22-4.91,11.06-17.31,11.06-17.31-126.15-13.32-222.8,14.72-291.58,50.44,30.93-19.76,68.54-39.92,101.46-50.44,43.93-14.04,70.64-26.88,135.8-36.7,65.16-9.82,42.86-1.64,82.14-1.64s21.28,8.18,45.83,1.64c24.55-6.55,8.18-13.09,16.37-27.82,8.18-14.73,14.73-14.73,13.88-27.82-.85-13.09-26.98-11.46-67.89-8.18-29.36,2.35-114.06,28.29-190.6,53.06,32.85-17.47,69.33-35.17,107.96-51.59,87.29-37.1,111.29-39.28,187.67-48.01,76.38-8.73,61.1,10.91,76.38-10.91,15.28-21.82,0-52.37-15.28-63.29Z"/></svg>